<svg width="40px" height="40px" viewBox="0 0 400 400" version="1.1" xmlns="http://www.w3.org/2000/svg">
<g id="#f9f9f9ff">
<path fill="#f9f9f9" opacity="1.00" d=" M 194.55 0.00 L 201.59 0.00 C 201.55 9.99 201.44 19.99 201.37 29.98 C 209.88 30.10 218.37 30.82 226.78 32.06 C 228.37 22.20 229.92 12.33 231.47 2.47 C 251.23 5.58 270.50 11.74 288.44 20.57 C 284.02 29.54 279.57 38.48 275.17 47.45 C 282.76 51.27 290.08 55.59 297.08 60.39 C 302.84 52.23 308.51 44.00 314.24 35.82 C 330.60 47.31 345.34 61.13 357.64 76.91 C 349.79 83.09 341.89 89.21 334.04 95.39 C 339.21 102.12 343.94 109.19 348.17 116.56 C 356.90 111.69 365.59 106.76 374.28 101.84 C 384.13 119.26 391.30 138.17 395.52 157.72 C 385.75 159.83 375.97 161.89 366.21 164.05 C 367.95 172.36 369.09 180.79 369.70 189.26 C 379.67 188.67 389.63 188.00 399.60 187.42 C 399.72 189.80 399.84 192.17 400.00 194.55 L 400.00 205.39 C 399.44 219.38 397.77 233.35 394.44 246.97 C 384.72 244.65 375.01 242.25 365.27 239.98 C 363.27 248.21 360.64 256.28 357.50 264.15 C 366.73 267.97 376.00 271.71 385.25 275.49 C 377.70 294.01 367.33 311.38 354.62 326.84 C 346.91 320.49 339.20 314.13 331.45 307.82 C 326.01 314.35 320.13 320.51 313.87 326.25 C 320.54 333.68 327.24 341.10 333.95 348.50 C 320.10 360.98 304.54 371.58 287.76 379.72 C 286.81 380.15 285.94 380.71 285.15 381.38 C 284.62 381.48 283.57 381.68 283.04 381.78 C 283.17 381.39 283.43 380.61 283.56 380.22 C 279.42 371.63 275.54 362.92 271.45 354.31 C 263.75 357.86 255.79 360.81 247.67 363.24 C 250.41 372.85 253.26 382.43 256.03 392.03 C 238.71 397.10 220.70 399.70 202.66 400.00 L 200.00 400.00 C 199.99 390.00 200.01 380.01 199.99 370.01 C 191.48 369.94 182.98 369.33 174.55 368.14 C 173.07 378.01 171.60 387.89 170.10 397.77 C 150.32 394.81 131.00 388.83 112.99 380.13 C 117.34 371.13 121.72 362.15 126.04 353.15 C 118.43 349.38 111.08 345.11 104.05 340.37 C 98.36 348.58 92.74 356.82 87.11 365.07 L 87.85 365.59 C 71.02 354.22 55.99 340.22 43.35 324.33 C 51.15 318.08 59.05 311.93 66.81 305.63 C 61.53 299.00 56.78 291.97 52.55 284.63 C 43.81 289.50 35.19 294.58 26.51 299.55 C 16.52 282.21 9.21 263.35 4.82 243.83 C 14.53 241.72 24.20 239.41 33.93 237.39 C 32.49 229.01 30.96 220.62 30.42 212.12 C 20.44 212.73 10.48 213.52 0.51 214.17 C 0.31 211.27 0.21 208.36 0.00 205.46 L 0.00 197.24 C 0.26 182.90 1.93 168.57 5.18 154.59 C 14.91 156.83 24.63 159.11 34.36 161.36 C 36.37 153.12 38.87 145.00 41.98 137.10 C 32.72 133.35 23.42 129.71 14.15 125.98 C 21.55 107.40 31.79 89.97 44.34 74.41 C 52.15 80.66 59.87 87.00 67.68 93.22 C 73.05 86.61 78.98 80.49 85.10 74.58 C 78.32 67.28 71.63 59.89 64.86 52.57 C 79.64 39.09 96.35 27.72 114.45 19.17 C 118.75 28.19 122.98 37.24 127.31 46.25 C 135.00 42.68 142.92 39.62 151.02 37.12 C 148.19 27.54 145.28 17.99 142.42 8.41 C 159.33 3.29 176.92 0.65 194.55 0.00 M 223.07 112.53 C 220.03 114.13 217.81 116.96 215.22 119.18 C 207.66 125.56 201.15 133.05 193.64 139.48 C 186.30 146.14 179.59 153.46 172.08 159.93 C 166.31 165.19 160.98 170.91 155.21 176.16 C 149.79 180.76 144.92 185.94 139.78 190.83 C 137.46 193.03 135.14 195.31 133.52 198.09 C 133.08 202.42 133.01 206.86 133.57 211.19 C 136.25 215.51 140.27 218.71 143.86 222.23 C 149.13 227.24 154.09 232.60 159.68 237.26 C 165.58 242.68 171.06 248.54 177.03 253.89 C 184.07 259.97 190.30 266.92 197.26 273.09 C 205.69 280.35 212.86 289.04 221.83 295.69 C 225.69 298.87 230.92 297.35 235.49 297.59 C 240.17 296.51 244.08 292.89 246.44 288.76 C 247.03 284.53 246.83 280.19 246.55 275.93 C 244.93 273.06 242.81 270.46 240.29 268.34 C 232.10 261.36 225.01 253.20 216.80 246.23 C 208.21 238.15 199.98 229.69 191.33 221.68 C 185.37 216.89 180.53 210.87 174.58 206.10 C 174.51 205.24 174.45 204.39 174.40 203.54 C 182.74 195.13 191.85 187.53 200.07 179.00 C 212.82 167.83 224.32 155.31 237.01 144.08 C 240.47 140.69 244.35 137.53 246.57 133.13 C 246.87 129.05 246.91 124.93 246.56 120.86 C 244.74 117.26 241.85 114.11 238.13 112.49 C 235.54 112.49 233.20 111.36 231.04 110.05 C 228.57 111.40 225.94 112.58 223.07 112.53 Z" />
</g>
<g id="#feda0fff">
<path fill="#feda0f" opacity="1.00" d=" M 201.59 0.00 L 206.24 0.00 C 214.68 0.48 223.12 1.08 231.47 2.47 C 229.92 12.33 228.37 22.20 226.78 32.06 C 218.37 30.82 209.88 30.10 201.37 29.98 C 201.44 19.99 201.55 9.99 201.59 0.00 Z" />
<path fill="#feda0f" opacity="1.00" d=" M 114.45 19.17 C 123.48 14.89 132.84 11.29 142.42 8.41 C 145.28 17.99 148.19 27.54 151.02 37.12 C 142.92 39.62 135.00 42.68 127.31 46.25 C 122.98 37.24 118.75 28.19 114.45 19.17 Z" />
<path fill="#feda0f" opacity="1.00" d=" M 288.44 20.57 C 297.41 25.00 306.04 30.11 314.24 35.82 C 308.51 44.00 302.84 52.23 297.08 60.39 C 290.08 55.59 282.76 51.27 275.17 47.45 C 279.57 38.48 284.02 29.54 288.44 20.57 Z" />
<path fill="#feda0f" opacity="1.00" d=" M 44.34 74.41 C 50.62 66.63 57.49 59.33 64.86 52.57 C 71.63 59.89 78.32 67.28 85.10 74.58 C 78.98 80.49 73.05 86.61 67.68 93.22 C 59.87 87.00 52.15 80.66 44.34 74.41 Z" />
<path fill="#feda0f" opacity="1.00" d=" M 357.64 76.91 C 363.81 84.78 369.36 93.13 374.28 101.84 C 365.59 106.76 356.90 111.69 348.17 116.56 C 343.94 109.19 339.21 102.12 334.04 95.39 C 341.89 89.21 349.79 83.09 357.64 76.91 Z" />
<path fill="#feda0f" opacity="1.00" d=" M 5.18 154.59 C 7.45 144.85 10.45 135.27 14.15 125.98 C 23.42 129.71 32.72 133.35 41.98 137.10 C 38.87 145.00 36.37 153.12 34.36 161.36 C 24.63 159.11 14.91 156.83 5.18 154.59 Z" />
<path fill="#feda0f" opacity="1.00" d=" M 366.21 164.05 C 375.97 161.89 385.75 159.83 395.52 157.72 C 397.61 167.50 398.98 177.44 399.60 187.42 C 389.63 188.00 379.67 188.67 369.70 189.26 C 369.09 180.79 367.95 172.36 366.21 164.05 Z" />
<path fill="#feda0f" opacity="1.00" d=" M 0.51 214.17 C 10.48 213.52 20.44 212.73 30.42 212.12 C 30.96 220.62 32.49 229.01 33.93 237.39 C 24.20 239.41 14.53 241.72 4.82 243.83 C 2.63 234.07 1.21 224.15 0.51 214.17 Z" />
<path fill="#feda0f" opacity="1.00" d=" M 365.27 239.98 C 375.01 242.25 384.72 244.65 394.44 246.97 C 392.11 256.69 389.03 266.23 385.25 275.49 C 376.00 271.71 366.73 267.97 357.50 264.15 C 360.64 256.28 363.27 248.21 365.27 239.98 Z" />
<path fill="#feda0f" opacity="1.00" d=" M 26.51 299.55 C 35.19 294.58 43.81 289.50 52.55 284.63 C 56.78 291.97 61.53 299.00 66.81 305.63 C 59.05 311.93 51.15 318.08 43.35 324.33 C 37.13 316.51 31.49 308.21 26.51 299.55 Z" />
<path fill="#feda0f" opacity="1.00" d=" M 331.45 307.82 C 339.20 314.13 346.91 320.49 354.62 326.84 C 348.30 334.57 341.36 341.80 333.95 348.50 C 327.24 341.10 320.54 333.68 313.87 326.25 C 320.13 320.51 326.01 314.35 331.45 307.82 Z" />
<path fill="#feda0f" opacity="1.00" d=" M 87.11 365.07 C 92.74 356.82 98.36 348.58 104.05 340.37 C 111.08 345.11 118.43 349.38 126.04 353.15 C 121.72 362.15 117.34 371.13 112.99 380.13 C 104.28 375.89 95.85 371.06 87.85 365.59 L 87.11 365.07 Z" />
<path fill="#feda0f" opacity="1.00" d=" M 247.67 363.24 C 255.79 360.81 263.75 357.86 271.45 354.31 C 275.54 362.92 279.42 371.63 283.56 380.22 C 283.43 380.61 283.17 381.39 283.04 381.78 C 274.43 386.11 265.26 389.27 256.03 392.03 C 253.26 382.43 250.41 372.85 247.67 363.24 Z" />
<path fill="#feda0f" opacity="1.00" d=" M 174.55 368.14 C 182.98 369.33 191.48 369.94 199.99 370.01 C 200.01 380.01 199.99 390.00 200.00 400.00 L 196.33 400.00 C 187.55 399.77 178.79 399.08 170.10 397.77 C 171.60 387.89 173.07 378.01 174.55 368.14 Z" />
</g>
<g id="#a6a6a6ff">
<path fill="#a6a6a6" opacity="1.00" d=" M 223.07 112.53 C 225.94 112.58 228.57 111.40 231.04 110.05 C 233.20 111.36 235.54 112.49 238.13 112.49 C 241.85 114.11 244.74 117.26 246.56 120.86 C 246.91 124.93 246.87 129.05 246.57 133.13 C 244.35 137.53 240.47 140.69 237.01 144.08 C 224.32 155.31 212.82 167.83 200.07 179.00 C 191.85 187.53 182.74 195.13 174.40 203.54 C 174.45 204.39 174.51 205.24 174.58 206.10 C 180.53 210.87 185.37 216.89 191.33 221.68 C 199.98 229.69 208.21 238.15 216.80 246.23 C 225.01 253.20 232.10 261.36 240.29 268.34 C 242.81 270.46 244.93 273.06 246.55 275.93 C 246.83 280.19 247.03 284.53 246.44 288.76 C 244.08 292.89 240.17 296.51 235.49 297.59 C 230.92 297.35 225.69 298.87 221.83 295.69 C 212.86 289.04 205.69 280.35 197.26 273.09 C 190.30 266.92 184.07 259.97 177.03 253.89 C 171.06 248.54 165.58 242.68 159.68 237.26 C 154.09 232.60 149.13 227.24 143.86 222.23 C 140.27 218.71 136.25 215.51 133.57 211.19 C 133.01 206.86 133.08 202.42 133.52 198.09 C 135.14 195.31 137.46 193.03 139.78 190.83 C 144.92 185.94 149.79 180.76 155.21 176.16 C 160.98 170.91 166.31 165.19 172.08 159.93 C 179.59 153.46 186.30 146.14 193.64 139.48 C 201.15 133.05 207.66 125.56 215.22 119.18 C 217.81 116.96 220.03 114.13 223.07 112.53 Z" />
</g>
</svg>