<svg width="40px" height="40px" viewBox="0 0 400 400" version="1.1" xmlns="http://www.w3.org/2000/svg">
<g id="#f9f9f9ff">
<path fill="#f9f9f9" opacity="1.00" d=" M 194.68 0.00 L 201.60 0.00 C 201.54 9.99 201.44 19.99 201.37 29.98 C 209.88 30.10 218.37 30.82 226.79 32.07 C 228.36 22.20 229.92 12.34 231.47 2.47 C 251.23 5.59 270.50 11.74 288.44 20.57 C 284.02 29.53 279.59 38.49 275.17 47.44 C 282.75 51.28 290.09 55.58 297.09 60.40 C 302.83 52.22 308.52 44.01 314.25 35.82 C 330.60 47.32 345.35 61.14 357.65 76.91 C 349.79 83.10 341.87 89.21 334.03 95.42 C 339.25 102.12 343.94 109.21 348.18 116.57 C 356.89 111.67 365.59 106.77 374.28 101.84 C 384.12 119.25 391.30 138.17 395.52 157.72 C 385.75 159.83 375.97 161.91 366.21 164.04 C 367.94 172.36 369.10 180.79 369.69 189.26 C 379.66 188.66 389.63 188.01 399.60 187.42 C 399.73 189.80 399.87 192.18 400.00 194.56 L 400.00 205.26 C 399.46 219.30 397.77 233.31 394.44 246.97 C 384.72 244.64 375.01 242.27 365.29 239.97 C 363.26 248.20 360.64 256.28 357.50 264.16 C 366.74 267.96 376.00 271.72 385.25 275.49 C 377.70 294.01 367.32 311.38 354.63 326.84 C 346.92 320.49 339.19 314.15 331.46 307.82 C 326.01 314.34 320.13 320.51 313.86 326.26 C 320.55 333.68 327.24 341.10 333.95 348.51 C 319.10 361.92 302.23 373.08 284.08 381.51 C 279.90 372.43 275.68 363.37 271.46 354.31 C 263.74 357.84 255.78 360.81 247.66 363.26 C 250.43 372.85 253.25 382.44 256.03 392.04 C 238.69 397.09 220.67 399.71 202.62 400.00 L 200.00 400.00 C 200.00 390.00 200.00 380.01 200.00 370.02 C 191.48 369.94 182.98 369.32 174.55 368.14 C 173.07 378.02 171.59 387.89 170.10 397.77 C 150.32 394.81 131.00 388.83 112.99 380.13 C 117.35 371.13 121.71 362.15 126.05 353.15 C 118.43 349.39 111.08 345.11 104.04 340.36 C 98.41 348.58 92.71 356.75 87.17 365.04 L 87.71 365.49 C 70.94 354.14 55.96 340.17 43.35 324.34 C 51.17 318.11 59.00 311.90 66.82 305.68 C 61.56 299.00 56.78 291.97 52.53 284.62 C 43.82 289.54 35.18 294.57 26.51 299.55 C 16.53 282.21 9.20 263.35 4.83 243.83 C 14.58 241.64 24.36 239.53 34.09 237.25 C 32.27 228.96 31.07 220.55 30.41 212.10 C 20.44 212.76 10.48 213.50 0.51 214.17 C 0.32 211.25 0.16 208.32 0.00 205.40 L 0.00 194.71 C 0.53 181.22 2.09 167.75 5.19 154.59 C 14.91 156.84 24.63 159.11 34.36 161.36 C 36.37 153.11 38.88 144.99 41.99 137.10 C 32.72 133.36 23.42 129.70 14.15 125.98 C 21.55 107.41 31.78 89.97 44.34 74.42 C 52.13 80.67 59.88 86.98 67.67 93.23 C 73.07 86.65 78.93 80.46 85.12 74.63 C 78.36 67.29 71.63 59.91 64.87 52.57 C 79.64 39.09 96.35 27.72 114.44 19.17 C 118.74 28.20 122.99 37.24 127.30 46.26 C 135.00 42.69 142.92 39.63 151.03 37.11 C 148.18 27.54 145.29 17.98 142.42 8.42 C 159.37 3.29 177.00 0.63 194.68 0.00 M 166.90 110.30 C 164.66 112.67 160.83 111.82 158.64 114.27 C 156.78 116.06 154.68 117.81 153.57 120.19 C 153.01 124.73 153.02 129.40 153.60 133.95 C 156.93 139.39 162.35 143.03 166.65 147.64 C 172.15 153.37 178.16 158.58 183.98 163.98 C 190.80 171.20 198.68 177.30 205.51 184.51 C 211.96 191.09 219.17 196.86 225.58 203.49 C 225.53 204.34 225.48 205.20 225.44 206.05 C 220.02 210.39 215.63 215.83 210.29 220.25 C 204.80 224.74 200.23 230.23 194.81 234.80 C 188.00 240.62 182.05 247.36 175.37 253.33 C 168.91 258.91 163.03 265.10 156.92 271.05 C 155.50 272.70 153.39 274.25 153.40 276.64 C 153.13 280.71 153.01 284.84 153.56 288.89 C 155.47 292.57 158.82 295.59 162.61 297.28 C 166.80 297.90 171.14 297.83 175.34 297.37 C 181.09 295.22 184.58 289.88 189.20 286.14 C 196.60 279.91 202.92 272.52 210.27 266.23 C 217.22 260.24 223.21 253.23 230.24 247.33 C 237.82 240.56 244.64 233.01 252.13 226.15 C 256.29 222.60 260.33 218.91 264.02 214.87 C 268.71 210.36 266.27 203.34 266.52 197.62 C 263.02 192.47 258.29 188.37 253.70 184.23 C 246.75 178.23 240.69 171.29 233.77 165.26 C 226.96 159.43 221.03 152.66 214.30 146.74 C 206.54 140.17 199.92 132.37 192.14 125.81 C 187.36 121.88 183.61 116.79 178.45 113.32 C 176.96 112.20 175.00 112.41 173.26 112.11 C 172.81 111.63 171.92 110.67 171.47 110.19 C 169.94 111.47 168.41 111.51 166.90 110.30 Z" />
</g>
<g id="#feda0fff">
<path fill="#feda0f" opacity="1.00" d=" M 201.60 0.00 L 202.74 0.00 C 212.35 0.18 221.97 0.95 231.47 2.47 C 229.92 12.34 228.36 22.20 226.79 32.07 C 218.37 30.82 209.88 30.10 201.37 29.98 C 201.44 19.99 201.54 9.99 201.60 0.00 Z" />
<path fill="#feda0f" opacity="1.00" d=" M 114.44 19.17 C 123.48 14.88 132.84 11.29 142.42 8.42 C 145.29 17.98 148.18 27.54 151.03 37.11 C 142.92 39.63 135.00 42.69 127.30 46.26 C 122.99 37.24 118.74 28.20 114.44 19.17 Z" />
<path fill="#feda0f" opacity="1.00" d=" M 288.44 20.57 C 297.41 24.99 306.03 30.11 314.25 35.82 C 308.52 44.01 302.83 52.22 297.09 60.40 C 290.09 55.58 282.75 51.28 275.17 47.44 C 279.59 38.49 284.02 29.53 288.44 20.57 Z" />
<path fill="#feda0f" opacity="1.00" d=" M 44.34 74.42 C 50.63 66.64 57.49 59.32 64.87 52.57 C 71.63 59.91 78.36 67.29 85.12 74.63 C 78.93 80.46 73.07 86.65 67.67 93.23 C 59.88 86.98 52.13 80.67 44.34 74.42 Z" />
<path fill="#feda0f" opacity="1.00" d=" M 357.65 76.91 C 363.80 84.79 369.37 93.13 374.28 101.84 C 365.59 106.77 356.89 111.67 348.18 116.57 C 343.94 109.21 339.25 102.12 334.03 95.42 C 341.87 89.21 349.79 83.10 357.65 76.91 Z" />
<path fill="#feda0f" opacity="1.00" d=" M 5.19 154.59 C 7.45 144.85 10.45 135.28 14.15 125.98 C 23.42 129.70 32.72 133.36 41.99 137.10 C 38.88 144.99 36.37 153.11 34.36 161.36 C 24.63 159.11 14.91 156.84 5.19 154.59 Z" />
<path fill="#feda0f" opacity="1.00" d=" M 366.21 164.04 C 375.97 161.91 385.75 159.83 395.52 157.72 C 397.61 167.50 398.98 177.44 399.60 187.42 C 389.63 188.01 379.66 188.66 369.69 189.26 C 369.10 180.79 367.94 172.36 366.21 164.04 Z" />
<path fill="#feda0f" opacity="1.00" d=" M 0.51 214.17 C 10.48 213.50 20.44 212.76 30.41 212.10 C 31.07 220.55 32.27 228.96 34.09 237.25 C 24.36 239.53 14.58 241.64 4.83 243.83 C 2.65 234.07 1.20 224.15 0.51 214.17 Z" />
<path fill="#feda0f" opacity="1.00" d=" M 365.29 239.97 C 375.01 242.27 384.72 244.64 394.44 246.97 C 392.12 256.70 389.02 266.23 385.25 275.49 C 376.00 271.72 366.74 267.96 357.50 264.16 C 360.64 256.28 363.26 248.20 365.29 239.97 Z" />
<path fill="#feda0f" opacity="1.00" d=" M 26.51 299.55 C 35.18 294.57 43.82 289.54 52.53 284.62 C 56.78 291.97 61.56 299.00 66.82 305.68 C 59.00 311.90 51.17 318.11 43.35 324.34 C 37.13 316.51 31.49 308.22 26.51 299.55 Z" />
<path fill="#feda0f" opacity="1.00" d=" M 331.46 307.82 C 339.19 314.15 346.92 320.49 354.63 326.84 C 348.29 334.56 341.37 341.81 333.95 348.51 C 327.24 341.10 320.55 333.68 313.86 326.26 C 320.13 320.51 326.01 314.34 331.46 307.82 Z" />
<path fill="#feda0f" opacity="1.00" d=" M 87.17 365.04 C 92.71 356.75 98.41 348.58 104.04 340.36 C 111.08 345.11 118.43 349.39 126.05 353.15 C 121.71 362.15 117.35 371.13 112.99 380.13 C 104.23 375.86 95.73 371.03 87.71 365.49 L 87.17 365.04 Z" />
<path fill="#feda0f" opacity="1.00" d=" M 247.66 363.26 C 255.78 360.81 263.74 357.84 271.46 354.31 C 275.68 363.37 279.90 372.43 284.08 381.51 C 275.01 385.72 265.63 389.24 256.03 392.04 C 253.25 382.44 250.43 372.85 247.66 363.26 Z" />
<path fill="#feda0f" opacity="1.00" d=" M 174.55 368.14 C 182.98 369.32 191.48 369.94 200.00 370.02 C 200.00 380.01 200.00 390.00 200.00 400.00 L 194.60 400.00 C 186.41 399.63 178.22 399.01 170.10 397.77 C 171.59 387.89 173.07 378.02 174.55 368.14 Z" />
</g>
<g id="#a6a6a6ff">
<path fill="#a6a6a6" opacity="1.00" d=" M 166.90 110.30 C 168.41 111.51 169.94 111.47 171.47 110.19 C 171.92 110.67 172.81 111.63 173.26 112.11 C 175.00 112.41 176.96 112.20 178.45 113.32 C 183.61 116.79 187.36 121.88 192.14 125.81 C 199.92 132.37 206.54 140.17 214.30 146.74 C 221.03 152.66 226.96 159.43 233.77 165.26 C 240.69 171.29 246.75 178.23 253.70 184.23 C 258.29 188.37 263.02 192.47 266.52 197.62 C 266.27 203.34 268.71 210.36 264.02 214.87 C 260.33 218.91 256.29 222.60 252.13 226.15 C 244.64 233.01 237.82 240.56 230.24 247.33 C 223.21 253.23 217.22 260.24 210.27 266.23 C 202.92 272.52 196.60 279.91 189.20 286.14 C 184.58 289.88 181.09 295.22 175.34 297.37 C 171.14 297.83 166.80 297.90 162.61 297.28 C 158.82 295.59 155.47 292.57 153.56 288.89 C 153.01 284.84 153.13 280.71 153.40 276.64 C 153.39 274.25 155.50 272.70 156.92 271.05 C 163.03 265.10 168.91 258.91 175.37 253.33 C 182.05 247.36 188.00 240.62 194.81 234.80 C 200.23 230.23 204.80 224.74 210.29 220.25 C 215.63 215.83 220.02 210.39 225.44 206.05 C 225.48 205.20 225.53 204.34 225.58 203.49 C 219.17 196.86 211.96 191.09 205.51 184.51 C 198.68 177.30 190.80 171.20 183.98 163.98 C 178.16 158.58 172.15 153.37 166.65 147.64 C 162.35 143.03 156.93 139.39 153.60 133.95 C 153.02 129.40 153.01 124.73 153.57 120.19 C 154.68 117.81 156.78 116.06 158.64 114.27 C 160.83 111.82 164.66 112.67 166.90 110.30 Z" />
</g>
</svg>