<?xml version="1.0" encoding="UTF-8"?>
<!DOCTYPE svg PUBLIC "-//W3C//DTD SVG 1.1//EN" "http://www.w3.org/Graphics/SVG/1.1/DTD/svg11.dtd">
<!-- Creator: CorelDRAW X7 -->
<svg xmlns="http://www.w3.org/2000/svg" xml:space="preserve" width="236px" height="215px" version="1.1" style="shape-rendering:geometricPrecision; text-rendering:geometricPrecision; image-rendering:optimizeQuality; fill-rule:evenodd; clip-rule:evenodd"
viewBox="0 0 236 215"
 xmlns:xlink="http://www.w3.org/1999/xlink">
 <defs>
  <style type="text/css">
   <![CDATA[
    .fil0 {fill:black;fill-rule:nonzero}
   ]]>
  </style>
 </defs>
 <g id="Слой_x0020_1">
  <metadata id="CorelCorpID_0Corel-Layer"/>
  <g id="_2101902789168">
   <polygon class="fil0" points="134,87 103,87 103,78 134,78 "/>
   <path class="fil0" d="M50 87l-25 0 -5 0 0 -5 0 -60c0,-6 3,-12 7,-16l0 0c4,-4 9,-6 15,-6l152 0c6,0 11,2 15,6 4,4 7,10 7,16l0 60 0 5 -5 0 -26 0 0 -9 21 0 0 -56c0,-3 -1,-7 -3,-9 -3,-2 -6,-4 -9,-4l-152 0c-3,0 -6,2 -9,4 -2,2 -4,6 -4,9l0 56 21 0 0 9z"/>
   <path class="fil0" d="M14 136l208 0c4,0 7,1 10,4l0 0 0 0c2,2 4,6 4,9l0 42 0 4 -5 0 -226 0 -5 0 0 -4 0 -42c0,-3 2,-7 4,-9l0 0c3,-3 6,-4 10,-4zm208 9l-208 0c-1,0 -2,1 -3,1l0 0c-1,1 -1,2 -1,3l0 37 216 0 0 -37c0,-1 0,-2 -1,-3l0 0c-1,0 -2,-1 -3,-1z"/>
   <path class="fil0" d="M21 81c1,-3 4,-4 6,-3 3,1 4,3 3,6l-20 63c-1,2 -4,4 -6,3 -3,-1 -4,-3 -3,-6l20 -63z"/>
   <path class="fil0" d="M206 84c-1,-3 1,-5 3,-6 3,-1 5,0 6,3l21 63c0,3 -1,5 -3,6 -3,1 -6,-1 -6,-3l-21 -63z"/>
   <path class="fil0" d="M21 194c0,-2 2,-5 4,-5 3,0 5,3 5,5l0 14c0,2 -1,4 -2,5l0 0c-1,1 -3,2 -5,2l-16 0c-2,0 -4,-1 -5,-2 -1,-1 -2,-3 -2,-5l0 -14c0,-2 2,-5 5,-5 2,0 5,3 5,5l0 12 11 0 0 -12z"/>
   <path class="fil0" d="M226 194c0,-2 2,-5 5,-5 3,0 5,3 5,5l0 14c0,2 -1,4 -2,5l0 0c-1,1 -3,2 -5,2l-16 0c-2,0 -4,-1 -5,-2 -1,-1 -2,-3 -2,-5l0 -14c0,-2 2,-5 5,-5 2,0 4,3 4,5l0 12 11 0 0 -12z"/>
   <path class="fil0" d="M62 48l32 0c4,0 7,1 9,3l0 0c3,3 4,6 4,9l0 24c0,4 -1,7 -4,9 -2,2 -5,4 -9,4l-36 0c-1,0 -2,0 -2,0 -3,-1 -6,-2 -7,-4 -3,-2 -4,-5 -4,-8 0,0 0,-1 0,-2l0 0 5 -24c0,-3 2,-6 4,-8l0 0c2,-2 5,-3 8,-3zm32 9l-32 0c0,0 -1,0 -1,1l0 0c-1,1 -2,2 -2,3l-4 24 0 0c0,1 0,1 0,1 1,1 2,1 2,1 0,0 1,0 1,0l36 0c1,0 2,0 3,-1 0,0 1,-1 1,-2l0 -24c0,-1 -1,-1 -1,-2 -1,-1 -2,-1 -3,-1z"/>
   <path class="fil0" d="M173 57l-32 0c-1,0 -1,0 -2,1 -1,1 -1,1 -1,2l0 24c0,1 0,2 1,2 1,1 1,1 2,1l37 0c0,0 0,0 0,0 1,0 2,0 2,-1 1,0 1,0 1,-1l0 0 -4 -24c-1,-1 -1,-2 -2,-3l0 0c0,-1 -1,-1 -2,-1zm-32 -9l32 0c4,0 7,1 9,3l0 0c2,2 3,5 4,8l4 24 0 0c0,1 0,2 0,2 0,3 -1,6 -3,8 -2,2 -4,3 -7,4 -1,0 -2,0 -2,0l-37 0c-3,0 -6,-2 -9,-4 -2,-2 -3,-5 -3,-9l0 -24c0,-3 1,-6 3,-9l0 0c3,-2 6,-3 9,-3z"/>
  </g>
 </g>
</svg>
