<?xml version="1.0" encoding="UTF-8"?>
<!DOCTYPE svg PUBLIC "-//W3C//DTD SVG 1.1//EN" "http://www.w3.org/Graphics/SVG/1.1/DTD/svg11.dtd">
<!-- Creator: CorelDRAW X7 -->
<svg xmlns="http://www.w3.org/2000/svg" xml:space="preserve" width="74px" height="63px" version="1.1" style="shape-rendering:geometricPrecision; text-rendering:geometricPrecision; image-rendering:optimizeQuality; fill-rule:evenodd; clip-rule:evenodd"
viewBox="0 0 74 63"
 xmlns:xlink="http://www.w3.org/1999/xlink">
 <defs>
  <style type="text/css">
   <![CDATA[
    .fil0 {fill:black;fill-rule:nonzero}
   ]]>
  </style>
 </defs>
 <g id="Слой_x0020_1">
  <metadata id="CorelCorpID_0Corel-Layer"/>
  <path class="fil0" d="M37 0c10,0 19,3 26,8 7,5 11,12 11,20 0,8 -4,15 -11,20 -7,5 -16,8 -26,8 -3,0 -6,0 -9,0 -3,-1 -5,-2 -8,-3l-12 10c-1,0 -3,0 -3,-1 -1,-1 -1,-1 -1,-2l6 -12c-3,-3 -5,-5 -7,-8 -2,-4 -3,-8 -3,-12 0,-8 4,-15 11,-20 7,-5 16,-8 26,-8zm24 11c-6,-4 -15,-7 -24,-7 -9,0 -18,3 -24,7 -5,5 -9,11 -9,17 0,4 1,7 3,10 1,3 4,5 7,7 1,1 1,2 1,3l-3 7 7 -5c0,-1 1,-1 2,-1 2,1 5,2 8,2 2,1 5,1 8,1 9,0 18,-3 24,-7 5,-4 9,-10 9,-17 0,-6 -4,-12 -9,-17z"/>
 </g>
</svg>
