<svg width="640px" height="1443px" viewBox="0 0 640 1443" version="1.1" xmlns="http://www.w3.org/2000/svg">
<g id="#f9f9f9ff">
<path fill="#f9f9f9" opacity="1.00" d=" M 0.00 0.00 L 639.21 0.00 C 617.86 22.00 595.90 43.43 574.31 65.20 C 497.94 141.53 421.62 217.90 345.26 294.23 C 336.54 302.66 328.37 311.68 319.34 319.77 C 283.98 284.53 248.71 249.16 213.38 213.88 C 212.62 212.60 211.42 211.68 210.41 210.61 C 175.80 175.98 141.16 141.38 106.56 106.74 C 72.41 72.14 37.78 38.01 3.54 3.49 C 2.51 2.42 1.25 1.60 0.00 0.81 L 0.00 0.00 Z" />
<path fill="#f9f9f9" opacity="1.00" d=" M 431.23 491.26 C 444.09 478.48 456.70 465.43 469.84 452.94 C 501.02 484.14 532.22 515.32 563.41 546.52 C 588.76 572.04 614.47 597.24 639.60 622.96 L 640.00 622.20 L 640.00 1443.00 L 516.16 1443.00 C 504.71 1430.76 492.50 1419.23 480.76 1407.27 C 393.46 1319.92 306.08 1232.65 218.81 1145.29 C 217.17 1143.44 215.30 1141.85 213.14 1140.67 C 192.00 1119.51 170.85 1098.26 149.59 1077.17 C 149.68 1076.96 149.84 1076.53 149.93 1076.32 C 99.86 1026.47 49.98 976.42 0.00 926.48 L 0.00 922.25 C 9.52 913.36 18.43 903.83 27.77 894.75 C 162.24 760.24 296.75 625.77 431.23 491.26 Z" />
</g>
<g id="#ffffffff">
<path fill="#ffffff" opacity="1.00" d=" M 639.21 0.00 L 640.00 0.00 L 640.00 282.75 C 626.13 295.96 612.89 309.83 599.21 323.23 C 591.71 331.00 583.76 338.35 576.48 346.33 C 540.88 381.81 505.31 417.34 469.84 452.94 C 456.70 465.43 444.09 478.48 431.23 491.26 C 296.75 625.77 162.24 760.24 27.77 894.75 C 18.43 903.83 9.52 913.36 0.00 922.25 L 0.00 427.12 C 53.18 373.94 106.36 320.76 159.53 267.58 C 177.51 249.71 195.29 231.63 213.38 213.88 C 248.71 249.16 283.98 284.53 319.34 319.77 C 328.37 311.68 336.54 302.66 345.26 294.23 C 421.62 217.90 497.94 141.53 574.31 65.20 C 595.90 43.43 617.86 22.00 639.21 0.00 M 153.07 670.17 L 153.05 671.06 L 153.94 671.07 L 153.95 670.18 L 153.07 670.17 M 151.13 672.05 L 151.11 672.92 L 151.97 672.94 L 151.99 672.07 L 151.13 672.05 Z" />
<path fill="#ffffff" opacity="1.00" d=" M 43.45 1183.26 C 78.80 1147.86 114.17 1112.49 149.59 1077.17 C 170.85 1098.26 192.00 1119.51 213.14 1140.67 C 215.30 1141.85 217.17 1143.44 218.81 1145.29 C 306.08 1232.65 393.46 1319.92 480.76 1407.27 C 492.50 1419.23 504.71 1430.76 516.16 1443.00 L 0.00 1443.00 L 0.00 1226.45 C 14.76 1212.34 28.92 1197.60 43.45 1183.26 Z" />
</g>
<g id="#e8e8e8ff">
<path fill="#e8e8e8" opacity="1.00" d=" M 0.00 0.81 C 1.25 1.60 2.51 2.42 3.54 3.49 C 37.78 38.01 72.41 72.14 106.56 106.74 C 70.97 142.16 35.52 177.73 0.00 213.23 L 0.00 0.81 Z" />
<path fill="#e8e8e8" opacity="1.00" d=" M 599.21 323.23 C 612.89 309.83 626.13 295.96 640.00 282.75 L 640.00 409.92 C 618.85 388.70 597.59 367.59 576.48 346.33 C 583.76 338.35 591.71 331.00 599.21 323.23 Z" />
<path fill="#e8e8e8" opacity="1.00" d=" M 0.00 1139.87 C 14.49 1154.32 28.90 1168.86 43.45 1183.26 C 28.92 1197.60 14.76 1212.34 0.00 1226.45 L 0.00 1139.87 Z" />
</g>
<g id="#aaaaaaaa">
<path fill="#aaaaaa" opacity="0.67" d=" M 153.07 670.17 L 153.95 670.18 L 153.94 671.07 L 153.05 671.06 L 153.07 670.17 Z" />
<path fill="#aaaaaa" opacity="0.67" d=" M 151.13 672.05 L 151.99 672.07 L 151.97 672.94 L 151.11 672.92 L 151.13 672.05 Z" />
</g>
</svg>