<?xml version="1.0" encoding="UTF-8"?>
<!DOCTYPE svg PUBLIC "-//W3C//DTD SVG 1.1//EN" "http://www.w3.org/Graphics/SVG/1.1/DTD/svg11.dtd">
<!-- Creator: CorelDRAW X7 -->
<svg xmlns="http://www.w3.org/2000/svg" xml:space="preserve" width="372px" height="282px" version="1.1" style="shape-rendering:geometricPrecision; text-rendering:geometricPrecision; image-rendering:optimizeQuality; fill-rule:evenodd; clip-rule:evenodd"
viewBox="0 0 372 282"
 xmlns:xlink="http://www.w3.org/1999/xlink">
 <defs>
  <style type="text/css">
   <![CDATA[
    .fil0 {fill:black;fill-rule:nonzero}
   ]]>
  </style>
 </defs>
 <g id="Слой_x0020_1">
  <metadata id="CorelCorpID_0Corel-Layer"/>
  <path class="fil0" d="M195 41l38 0c5,0 9,2 12,5l0 0c4,4 6,8 6,13l0 5 51 0 3 0 2 2 64 82 1 1 0 2 0 82c0,5 -2,10 -5,13l0 0c-3,3 -8,5 -13,5l-10 0c-2,8 -6,15 -11,20 -7,7 -17,11 -27,11 -11,0 -20,-4 -27,-11 -6,-5 -10,-12 -11,-20l-35 0 -6 0 -129 0c-2,8 -5,15 -11,20 -7,7 -16,11 -27,11 -10,0 -20,-4 -27,-11 -5,-5 -9,-12 -11,-20l-4 0c-5,0 -10,-2 -13,-5l0 0c-3,-3 -5,-8 -5,-13l0 -174c0,-5 2,-9 5,-13 3,-3 8,-5 13,-5l39 0c4,-7 9,-13 14,-18 14,-14 34,-23 55,-23 21,0 41,9 55,23 5,5 10,11 14,18zm165 120l-82 0c-4,0 -7,-1 -10,-4l0 0c-2,-2 -4,-6 -4,-9l0 -40c0,-4 2,-8 4,-10l0 0c3,-3 6,-4 10,-4l35 0 -14 -18 -48 0 0 157c0,2 -1,4 -1,6l18 0c1,-9 5,-17 11,-23 7,-7 16,-11 27,-11 10,0 20,4 27,11 6,6 10,14 11,23l10 0c2,0 3,-1 4,-2 1,-1 2,-2 2,-4l0 -72zm-37 -55l-45 0c0,0 -1,0 -1,0l0 0c0,1 0,1 0,2l0 40c0,0 0,0 0,1l0 0c0,0 1,0 1,0l78 0 -33 -43zm-204 -70c0,-4 3,-6 6,-6 4,0 7,2 7,6l0 39 29 31c2,3 2,7 -1,9 -2,2 -6,2 -9,0l-30 -33 0 0c-1,-1 -1,-3 -1,-4l-1 -42zm-67 18l-34 0c-2,0 -3,0 -4,1 -1,1 -2,2 -2,4l0 119 226 0 0 -119c0,-2 0,-3 -1,-4l0 0c-1,-1 -3,-1 -4,-1l-33 0c2,7 4,15 4,24 0,21 -9,40 -23,54 -14,14 -34,23 -55,23 -21,0 -41,-9 -55,-23 -14,-14 -23,-33 -23,-54 0,-9 2,-17 4,-24zm120 -23c-12,-11 -28,-19 -46,-19 -18,0 -34,8 -46,19 -12,12 -19,29 -19,47 0,18 7,34 19,46 12,11 28,19 46,19 18,0 34,-8 46,-19 12,-12 19,-28 19,-46 0,-18 -7,-35 -19,-47zm152 194c-4,-5 -11,-8 -18,-8 -7,0 -14,3 -19,8 -4,5 -7,11 -7,19 0,7 3,13 7,18 5,5 12,8 19,8 7,0 14,-3 18,-8 5,-5 8,-11 8,-18 0,-8 -3,-14 -8,-19zm-226 14l129 0 6 0 0 0c1,0 3,-1 4,-2 1,-1 1,-2 1,-4l0 -43 -226 0 0 43c0,2 1,3 2,4l0 0c1,1 2,2 4,2l4 0c1,-9 5,-17 11,-23 7,-7 17,-11 27,-11 11,0 20,4 27,11 6,6 10,14 11,23zm-19 -14c-5,-5 -12,-8 -19,-8 -7,0 -14,3 -18,8 -5,5 -8,11 -8,19 0,7 3,13 8,18 4,5 11,8 18,8 7,0 14,-3 19,-8 4,-5 7,-11 7,-18 0,-8 -3,-14 -7,-19z"/>
 </g>
</svg>
