<?xml version="1.0" encoding="UTF-8"?>
<!DOCTYPE svg PUBLIC "-//W3C//DTD SVG 1.1//EN" "http://www.w3.org/Graphics/SVG/1.1/DTD/svg11.dtd">
<!-- Creator: CorelDRAW X7 -->
<svg xmlns="http://www.w3.org/2000/svg" xml:space="preserve" width="397px" height="199px" version="1.1" style="shape-rendering:geometricPrecision; text-rendering:geometricPrecision; image-rendering:optimizeQuality; fill-rule:evenodd; clip-rule:evenodd"
viewBox="0 0 397 199"
 xmlns:xlink="http://www.w3.org/1999/xlink">
 <defs>
  <style type="text/css">
   <![CDATA[
    .fil0 {fill:black;fill-rule:nonzero}
   ]]>
  </style>
 </defs>
 <g id="Слой_x0020_1">
  <metadata id="CorelCorpID_0Corel-Layer"/>
  <path class="fil0" d="M280 28c-2,0 -4,-2 -4,-5 0,-3 2,-5 4,-5l99 0c5,0 9,2 13,6l0 0c3,3 5,8 5,13l0 94c0,5 -2,10 -5,13 -4,3 -8,5 -13,5l-70 0 0 25 33 0c3,0 5,2 5,5 0,2 -2,4 -5,4l-75 0c-2,0 -4,-2 -4,-4 0,-3 2,-5 4,-5l33 0 0 -25 -69 0c-5,0 -10,-2 -13,-5 0,0 0,0 0,0 -4,-4 -5,-8 -5,-13l0 -94c0,-5 2,-10 5,-13 3,-4 8,-6 13,-6 2,0 4,2 4,5 0,3 -2,5 -4,5 -3,0 -5,1 -6,2 -2,2 -3,4 -3,7l0 77 165 0 0 -77c0,-3 -1,-5 -2,-7l0 0c-2,-1 -4,-2 -6,-2l-99 0zm-233 50c-2,0 -3,-1 -3,-3 0,-2 1,-4 3,-4l28 0c2,0 4,2 4,4 0,2 -2,3 -4,3l-28 0zm0 24c-2,0 -3,-2 -3,-4 0,-2 1,-3 3,-3l72 0c2,0 3,1 3,3 0,2 -1,4 -3,4l-72 0zm0 24c-2,0 -3,-2 -3,-4 0,-2 1,-3 3,-3l72 0c2,0 3,1 3,3 0,2 -1,4 -3,4l-72 0zm0 23c-2,0 -3,-1 -3,-3 0,-2 1,-4 3,-4l72 0c2,0 3,2 3,4 0,2 -1,3 -3,3l-72 0zm0 25c-2,0 -3,-2 -3,-4 0,-2 1,-3 3,-3l72 0c2,0 3,1 3,3 0,2 -1,4 -3,4l-72 0zm59 -122l0 25 26 0 -26 -25zm31 35l-36 0 -5 0 0 -5 0 -40c0,0 0,-1 0,-1l0 -1 0 1 0 0 -1 1 -1 0 -1 1 0 1 -1 0 -1 1 0 1 -1 0 -1 1 -1 1 0 0 -1 1 -1 1 0 0 -1 1 0 1 -1 1 -1 0 0 1 -1 1 -1 0 0 1 -1 1 0 1 -1 0 0 1 -1 1 0 1 -1 0 -1 1c-1,2 -4,3 -6,2 -2,-2 -3,-5 -1,-7l0 -1 1 -1 0 -1 1 0 1 -1 0 -1 1 -1 0 -1 1 0 1 -1 0 -1 1 -1 1 -1 0 0 1 -1 1 -1 1 -1 0 0 1 -1 1 -1 1 -1 0 0 1 -1 1 -1 1 -1 0 0 1 -1 1 -1 1 0 0 -1 1 -1 1 0 1 -1 1 -1 1 0 0 -1 1 -1 1 0 1 -1 1 -1 1 0 1 -1 0 0 1 -1 1 -1 1 0 1 -1 1 0 1 -1 1 0 1 -1 1 0 0 -1 1 0 1 -1 1 -1 1 0 1 -1 1 0 1 -1 1 0 1 0 1 -1 1 0 1 -1 1 0 1 -1 1 0 1 -1 1 0 1 0 1 -1 1 0 1 -1 1 0 1 0 1 -1 1 0 1 0 1 -1 1 0 1 -1 1 0 1 0 1 0 2 -1 1 0 1 0 1 -1 1 0 1 0 1 0 1 -1 1 0 1 0 1 0 1 -1 1 0 1 0 2 0 1 0 1 -1 1 0 1 0 1 0 1 0 1 0 1 -1 1 0 2 0 1 0 1 0 1 0 1 0 1 0 1 0 1 -1 1 0 2 0 1 0 1 0 1 0 1 0 1 0 1 0 1 0 1 0 2 0 1 0 1 0 1 0 1 0 1 0 1 0 1 1 1 0 2 0 1 0 1 0 1 0 1 0 1 0 1 0 1 1 1 0 1 0 2 0 1 0 1 0 1 1 1 0 1 0 1 0 1 1 1 0 1 0 1 0 2 1 1 0 1 0 1 0 1 1 1 0 1 0 1 1 1 0 1 0 1 1 1 0 1 0 1 1 1 0 1 1 2 0 1 1 1 0 1 0 1 1 1 0 1 1 1 0 1 1 1 0 1 1 1 0 1 1 1 0 1 1 1 0 1 1 1 1 1 0 1 1 1 0 1 1 0 1 1 0 1 1 1 1 1 0 1 1 1 1 1 0 1 1 1 1 1 0 1 1 0 1 1 1 1 0 1 1 1 1 1 1 1 1 1 0 0 1 1 1 1 1 1 1 1 1 0 1 1 0 1 1 1 1 1 1 0 1 1 1 1 1 1 1 0 1 1 1 1 1 1 1 0 1 1 1 1 1 0 1 1 1 1 1 0 1 1 1 1 1 0 1 1 2 1 1 0 1 1 1 0 1 1 1 1 1 5 -28 9 1 -8 44 -1 7 -6 -4 -37 -25 3 -4 2 -4 23 16 0 -1 0 -1 -1 -1 -1 -1 0 -1 -1 -1 0 -1 -1 -1 -1 -1 0 -1 -1 -1 0 -1 -1 -1 -1 -1 0 -1 -1 -1 -1 -1 0 0 -1 -1 -1 -1 0 -1 -1 -1 -1 -1 -1 -1 0 -1 -1 0 -1 -1 -1 -1 0 -1 -1 -1 -1 0 -1 -1 0 -1 -1 -1 -1 -1 -1 0 0 -1 -1 -1 -1 0 -1 -1 -1 -1 0 -1 -1 0 -1 -1 -1 -1 -1 0 -1 -1 0 0 -1 -1 -1 -1 -1 0 -1 -1 -1 0 -1 -1 -1 -1 0 0 -1 -1 -1 0 -1 -1 -1 0 -1 -1 -1 0 -1 -1 -1 0 -1 -1 -1 0 0 -1 -1 0 -1 -1 -1 0 -1 -1 -1 0 -1 0 -1 -1 -1 0 -1 -1 -1 0 -1 0 -1 -1 -1 0 -1 0 -1 -1 -1 0 -1 0 -1 -1 -1 0 -1 0 -1 0 -1 -1 -1 0 -1 0 -1 -1 -1 0 -1 0 -1 0 -1 0 -1 -1 -1 0 -1 0 -1 0 -1 0 -1 -1 -1 0 -1 0 -1 0 -1 0 -1 0 -1 0 -1 -1 -1 0 -1 0 -1 0 -1 0 -1 0 -1 0 -1 0 -1 0 -2 0 -1 0 -1 0 -1 0 -1 0 -1 0 -1 0 -1 0 -1 0 -1 0 -1 0 -1 0 -1 0 -1 0 -1 0 -1 0 -1 0 -1 0 -1 0 -1 0 -1 0 -1 0 -1 1 -1 0 -2 0 -1 0 -1 0 -1 0 -1 0 -1 1 -1 0 -1 0 -1 0 -1 0 -1 1 -1 0 -1 0 -1 0 -1 0 -1 1 -1 0 -1 0 -1 0 -1 1 -1 0 -1 0 -1 1 -1 0 -1 0 -1 1 -1 0 -1 0 -1 0 -1 1 -1 0 -1 0 -1 1 -1 0 -1 1 0 0 -1 0 -1 1 -1 0 -1 1 -1 0 -1 0 -1 1 -1 0 -1 1 -1 0 -1 0 -1 1 -1 0 0 1 -1 0 -1 1 -1 0 -1 1 -1 0 -1 1 -1 0 0 1 -1 0 -1 1 -1 0 -1 1 -1 0 0 1 -1 0 -1 1 -1 1 -1 0 -1 1 0 0 -1 1c1,0 2,0 3,1l41 38c1,1 1,2 1,3l0 0 0 107c0,3 -1,7 -4,9 0,0 0,0 0,0 -2,2 -6,4 -9,4l-101 0c-4,0 -7,-2 -9,-4l0 0c-2,-2 -4,-5 -4,-8l-5 0c-4,0 -7,-2 -10,-4 0,0 0,-1 0,-1 -2,-2 -4,-5 -4,-9l0 -142c0,-4 2,-7 4,-10l0 0c3,-2 6,-4 10,-4l76 0c3,0 5,3 5,5 0,3 -2,5 -5,5l-76 0c-1,0 -2,0 -3,1l0 0 0 0c-1,1 -1,2 -1,3l0 142c0,1 0,2 1,3l0 0c1,1 2,1 3,1l5 0 0 -130c0,-3 1,-7 4,-9 0,0 0,0 0,0 2,-3 6,-4 9,-4l38 0c3,0 5,2 5,5 0,2 -2,5 -5,5l-38 0c-1,0 -2,0 -2,0l-1 1c0,0 -1,1 -1,2l0 139c0,1 1,2 1,2l0 0 0 0c1,1 2,1 3,1l101 0c1,0 2,0 2,-1l1 0c0,0 1,-1 1,-2l0 -99zm85 37l0 7c0,2 1,4 2,6l1 0c1,2 3,3 6,3l148 0c2,0 4,-1 6,-3 1,-1 2,-4 2,-6l0 -7 -165 0z"/>
 </g>
</svg>
