<?xml version="1.0" encoding="UTF-8"?>
<!DOCTYPE svg PUBLIC "-//W3C//DTD SVG 1.1//EN" "http://www.w3.org/Graphics/SVG/1.1/DTD/svg11.dtd">
<!-- Creator: CorelDRAW X7 -->
<svg xmlns="http://www.w3.org/2000/svg" xml:space="preserve" width="262px" height="262px" version="1.1" style="shape-rendering:geometricPrecision; text-rendering:geometricPrecision; image-rendering:optimizeQuality; fill-rule:evenodd; clip-rule:evenodd"
viewBox="0 0 262 262"
 xmlns:xlink="http://www.w3.org/1999/xlink">
 <defs>
  <style type="text/css">
   <![CDATA[
    .fil0 {fill:black}
   ]]>
  </style>
 </defs>
 <g id="Слой_x0020_1">
  <metadata id="CorelCorpID_0Corel-Layer"/>
  <path class="fil0" d="M105 162c2,0 4,2 4,4 0,3 -2,4 -4,4 -3,0 -5,-1 -5,-4 0,-2 2,-4 5,-4zm-100 -162l252 0c3,0 5,2 5,5l0 70c0,3 -2,5 -5,5l-252 0c-3,0 -5,-2 -5,-5l0 -70c0,-3 2,-5 5,-5zm247 9l-60 0 0 62 60 0 0 -62zm-70 0l-103 0 0 26 103 0 0 -26zm-112 0l-60 0 0 62 60 0 0 -62zm9 62l103 0 0 -26 -103 0 0 26zm-74 77l82 0 0 -8 -4 0c-3,0 -5,-2 -5,-4 0,-3 2,-5 5,-5l35 0c3,0 5,2 5,5 0,2 -2,4 -5,4l-4 0 0 8 34 0 0 -8 -5 0c-2,0 -4,-2 -4,-4 0,-3 2,-5 4,-5l35 0c3,0 5,2 5,5 0,2 -2,4 -5,4l-3 0 0 8 82 0c3,0 5,2 5,5l0 104c0,3 -2,5 -5,5l-252 0c-3,0 -5,-2 -5,-5l0 -104c0,-3 2,-5 5,-5zm91 0l8 0 0 -8 -8 0 0 8zm61 0l8 0 0 -8 -8 0 0 8zm95 10l-69 0 0 95 69 0 0 -95zm-79 0l-86 0 0 17 86 0 0 -17zm-95 0l-68 0 0 95 68 0 0 -95zm9 95l86 0 0 -69 -86 0 0 69zm-43 -213c-3,0 -5,-2 -5,-5 0,-3 2,-5 5,-5l12 0c3,0 5,2 5,5l0 13c0,3 -2,5 -5,5 -2,0 -4,-2 -4,-5l0 -8 -8 0zm174 -10c2,0 4,2 4,5 0,3 -2,5 -4,5l-8 0 0 8c0,3 -2,5 -5,5 -3,0 -5,-2 -5,-5l0 -13c0,-3 2,-5 5,-5l13 0zm-170 167c-3,0 -5,-2 -5,-5 0,-3 2,-5 5,-5l13 0c2,0 4,2 4,5l0 13c0,3 -2,5 -4,5 -3,0 -5,-2 -5,-5l0 -8 -8 0zm165 -10c3,0 5,2 5,5 0,3 -2,5 -5,5l-8 0 0 8c0,3 -2,5 -5,5 -2,0 -4,-2 -4,-5l0 -13c0,-3 2,-5 4,-5l13 0zm-96 -160c-2,0 -4,-2 -4,-4 0,-3 2,-5 4,-5l27 0c3,0 5,2 5,5 0,2 -2,4 -5,4l-27 0zm0 35c-2,0 -4,-2 -4,-5 0,-3 2,-5 4,-5l27 0c3,0 5,2 5,5 0,3 -2,5 -5,5l-27 0zm-17 138c0,-3 2,-5 5,-5 2,0 4,2 4,5l0 4 43 0 0 -4c0,-3 2,-5 4,-5 3,0 5,2 5,5l0 9c0,3 -2,5 -5,5l-51 0 0 0c-3,0 -5,-2 -5,-5l0 -9zm57 -38c2,0 4,2 4,4 0,3 -2,4 -4,4 -3,0 -4,-1 -4,-4 0,-2 1,-4 4,-4zm-18 0c3,0 4,2 4,4 0,3 -1,4 -4,4 -2,0 -4,-1 -4,-4 0,-2 2,-4 4,-4zm-17 0c2,0 4,2 4,4 0,3 -2,4 -4,4 -2,0 -4,-1 -4,-4 0,-2 2,-4 4,-4z"/>
 </g>
</svg>
