<svg width="23px" height="15px" viewBox="0 0 56 39" version="1.1" xmlns="http://www.w3.org/2000/svg">
<g id="#010002fd">
<path fill="#010002" opacity="1.00" d=" M 0.00 0.00 L 56.00 0.00 L 56.00 39.00 L 0.00 39.00 L 0.00 0.00 M 7.72 3.76 C 14.28 8.63 21.33 12.84 28.00 17.59 C 34.71 12.84 41.74 8.55 48.40 3.73 C 34.84 3.80 21.28 3.74 7.72 3.76 M 3.74 5.25 C 3.73 15.24 3.69 25.23 3.76 35.22 C 19.92 35.25 36.08 35.26 52.24 35.22 C 52.31 25.23 52.27 15.24 52.26 5.25 C 44.16 10.63 36.14 16.12 28.00 21.43 C 19.86 16.12 11.84 10.63 3.74 5.25 Z" />
</g>
</svg>