<?xml version="1.0" encoding="UTF-8"?>
<!DOCTYPE svg PUBLIC "-//W3C//DTD SVG 1.1//EN" "http://www.w3.org/Graphics/SVG/1.1/DTD/svg11.dtd">
<!-- Creator: CorelDRAW X7 -->
<svg xmlns="http://www.w3.org/2000/svg" xml:space="preserve" width="71px" height="48px" version="1.1" style="shape-rendering:geometricPrecision; text-rendering:geometricPrecision; image-rendering:optimizeQuality; fill-rule:evenodd; clip-rule:evenodd"
viewBox="0 0 71 48"
 xmlns:xlink="http://www.w3.org/1999/xlink">
 <defs>
  <style type="text/css">
   <![CDATA[
    .fil0 {fill:black;fill-rule:nonzero}
   ]]>
  </style>
 </defs>
 <g id="Слой_x0020_1">
  <metadata id="CorelCorpID_0Corel-Layer"/>
  <path class="fil0" d="M2 0l0 0 67 0c1,0 2,1 2,1l0 1 0 45c0,0 -1,1 -2,1l0 0 -67 0c-1,0 -2,-1 -2,-1l0 -1 0 -45c0,0 1,-1 2,-1zm66 5l-32 20c0,1 -1,1 -1,0l-32 -20 0 40 65 0 0 -40zm-62 -2l30 19 29 -19 -59 0z"/>
 </g>
</svg>
