<?xml version="1.0" encoding="UTF-8"?>
<!DOCTYPE svg PUBLIC "-//W3C//DTD SVG 1.1//EN" "http://www.w3.org/Graphics/SVG/1.1/DTD/svg11.dtd">
<!-- Creator: CorelDRAW X7 -->
<svg xmlns="http://www.w3.org/2000/svg" xml:space="preserve" width="279px" height="270px" version="1.1" style="shape-rendering:geometricPrecision; text-rendering:geometricPrecision; image-rendering:optimizeQuality; fill-rule:evenodd; clip-rule:evenodd"
viewBox="0 0 279 270"
 xmlns:xlink="http://www.w3.org/1999/xlink">
 <defs>
  <style type="text/css">
   <![CDATA[
    .fil0 {fill:black;fill-rule:nonzero}
   ]]>
  </style>
 </defs>
 <g id="Слой_x0020_1">
  <metadata id="CorelCorpID_0Corel-Layer"/>
  <g id="_2101990655248">
   <path class="fil0" d="M5 0l65 0c3,0 5,2 5,5l0 260c0,3 -2,5 -5,5l-65 0c-3,0 -5,-2 -5,-5l0 -260c0,-3 2,-5 5,-5zm60 10l-55 0 0 250 55 0 0 -250z"/>
   <path class="fil0" d="M209 0l65 0c3,0 5,2 5,5l0 260c0,3 -2,5 -5,5l-65 0c-3,0 -5,-2 -5,-5l0 -260c0,-3 2,-5 5,-5zm60 10l-55 0 0 250 55 0 0 -250z"/>
   <polygon class="fil0" points="70,260 219,260 219,270 70,270 "/>
   <polygon class="fil0" points="73,200 206,200 206,209 73,209 "/>
   <polygon class="fil0" points="73,163 206,163 206,172 73,172 "/>
   <polygon class="fil0" points="7,66 70,66 70,75 7,75 "/>
   <polygon class="fil0" points="7,131 70,131 70,140 7,140 "/>
   <polygon class="fil0" points="210,66 272,66 272,75 210,75 "/>
   <polygon class="fil0" points="210,131 272,131 272,140 210,140 "/>
   <polygon class="fil0" points="7,195 70,195 70,205 7,205 "/>
   <polygon class="fil0" points="212,195 275,195 275,205 212,205 "/>
   <polygon class="fil0" points="135,265 135,202 144,202 144,265 "/>
   <path class="fil0" d="M110 228c-3,0 -5,-2 -5,-5 0,-2 2,-4 5,-4l11 0c2,0 5,2 5,4l0 12c0,2 -3,4 -5,4 -3,0 -5,-2 -5,-4l0 -7 -6 0z"/>
   <path class="fil0" d="M169 219c3,0 5,2 5,4 0,3 -2,5 -5,5l-6 0 0 7c0,2 -2,4 -5,4 -2,0 -5,-2 -5,-4l0 -12c0,-2 3,-4 5,-4l11 0z"/>
   <path class="fil0" d="M88 52l103 0c2,0 4,2 4,4l0 74c0,3 -2,5 -4,5l-103 0c-2,0 -4,-2 -4,-5l0 -74c0,-2 2,-4 4,-4zm98 9l-93 0 0 65 93 0 0 -65z"/>
   <polygon class="fil0" points="135,150 135,130 144,130 144,150 "/>
   <path class="fil0" d="M121 167c0,3 -2,5 -5,5 -2,0 -4,-2 -4,-5l0 -10c0,-3 1,-6 3,-9 2,-2 5,-3 9,-3l31 0c3,0 6,1 8,3 3,3 4,6 4,9l0 9c0,3 -2,5 -5,5 -2,0 -4,-2 -4,-5l0 -9c0,-1 -1,-1 -1,-2 -1,0 -1,-1 -2,-1l-31 0c-1,0 -2,1 -2,1 -1,1 -1,1 -1,2l0 10z"/>
   <polygon class="fil0" points="88,110 191,110 191,119 88,119 "/>
  </g>
 </g>
</svg>
