<svg width="187px" height="103px" viewBox="0 0 726 400" version="1.1" xmlns="http://www.w3.org/2000/svg">
<g id="#fbdc44ff">
<path fill="#fbdc44" opacity="1.00" d=" M 55.41 0.00 L 726.00 0.00 L 726.00 0.40 C 707.31 66.45 688.99 132.64 670.53 198.76 L 669.97 199.07 C 641.31 199.09 612.65 199.07 583.98 199.08 C 569.16 199.23 554.22 198.76 539.47 199.31 C 529.85 232.96 504.55 260.65 474.16 277.20 C 453.74 288.31 430.61 294.72 407.31 294.73 C 409.57 289.82 411.18 284.41 413.83 279.81 C 447.67 276.94 479.45 256.92 496.76 227.73 C 502.07 218.85 506.03 209.16 508.37 199.09 C 338.91 199.07 169.46 199.07 0.00 199.08 L 0.00 198.70 C 18.68 132.78 36.85 66.70 55.42 0.75 L 55.41 0.00 M 140.83 46.56 C 130.77 58.30 120.81 70.14 110.77 81.89 C 109.63 82.83 109.32 84.69 107.63 84.91 C 107.68 72.32 107.62 59.73 107.66 47.14 L 107.28 46.40 C 100.89 46.71 94.41 46.14 88.07 46.68 C 88.23 78.01 87.97 109.34 88.20 140.67 C 94.68 140.59 101.16 140.70 107.64 140.61 C 107.66 130.06 107.66 119.52 107.64 108.98 C 108.20 107.27 110.01 106.32 111.15 104.99 L 111.90 105.09 C 121.41 116.90 130.91 128.74 140.42 140.56 C 148.57 140.81 156.75 140.45 164.91 140.75 C 164.80 140.51 164.58 140.02 164.47 139.78 C 151.60 124.16 138.74 108.53 125.81 92.96 L 125.65 92.16 C 138.74 77.38 151.55 62.34 164.60 47.52 C 164.66 47.23 164.80 46.66 164.87 46.37 C 156.86 46.66 148.83 46.28 140.83 46.56 M 385.93 83.03 C 381.62 89.91 383.20 98.31 382.91 105.98 C 383.25 113.74 381.56 122.20 385.79 129.23 C 391.88 139.80 405.69 143.68 417.12 141.23 C 426.27 139.39 434.97 132.25 437.04 123.10 C 431.73 121.46 426.52 119.50 421.18 117.99 C 419.31 123.93 411.90 126.92 406.29 124.50 C 403.62 123.48 401.37 121.03 401.40 118.06 C 401.33 110.37 401.38 102.69 401.37 95.00 C 401.31 93.22 401.81 91.35 403.07 90.04 C 408.10 84.80 418.59 86.66 420.81 93.83 C 425.95 92.46 431.02 90.75 436.10 89.15 L 436.54 88.36 C 435.52 85.60 434.50 82.78 432.62 80.47 C 421.37 66.00 395.45 67.30 385.93 83.03 M 527.30 71.47 C 517.61 73.65 508.96 81.71 508.08 91.92 C 507.74 100.94 507.96 109.98 507.96 119.01 C 508.08 127.21 513.26 134.86 520.55 138.46 C 530.44 143.41 542.94 143.17 552.41 137.33 C 558.71 133.48 562.90 126.38 563.02 118.98 C 563.10 110.65 563.07 102.31 563.04 93.98 C 563.01 87.03 559.41 80.30 553.83 76.21 C 546.33 70.65 536.25 69.18 527.30 71.47 M 171.23 72.16 C 171.28 88.10 171.20 104.05 171.27 119.99 C 171.27 126.35 173.70 133.03 179.03 136.81 C 187.31 142.91 198.62 143.11 208.06 139.81 C 208.57 143.75 207.07 148.41 203.29 150.28 C 196.51 153.80 187.92 151.86 182.20 147.26 C 179.09 150.62 176.63 154.61 173.67 158.13 L 173.64 158.93 C 180.06 165.16 189.17 167.83 197.97 167.76 C 204.82 167.65 211.97 165.89 217.27 161.34 C 223.14 156.35 225.99 148.54 225.99 140.96 C 226.01 117.90 226.01 94.84 225.99 71.77 C 219.90 71.68 213.80 71.79 207.71 71.72 L 207.39 72.39 C 207.33 89.93 207.57 107.51 207.27 125.04 C 203.00 127.41 197.59 127.80 193.10 125.82 C 190.47 124.71 188.94 121.86 189.07 119.06 C 189.03 103.30 189.10 87.54 189.03 71.78 C 183.30 71.66 177.57 71.82 171.84 71.70 L 171.23 72.16 M 240.80 71.83 C 240.68 94.60 240.78 117.37 240.75 140.14 L 241.29 140.67 C 247.12 140.62 252.95 140.63 258.78 140.67 L 259.20 140.08 C 259.27 122.84 259.14 105.60 259.27 88.37 C 265.41 88.35 271.55 88.43 277.70 88.32 C 278.01 105.57 277.75 122.86 277.83 140.12 L 278.27 140.67 C 284.31 140.36 290.58 141.14 296.48 140.29 C 296.31 117.46 296.54 94.61 296.37 71.78 C 277.85 71.74 259.31 71.65 240.80 71.83 M 310.20 72.09 C 310.27 94.95 310.11 117.81 310.28 140.66 C 316.70 140.55 323.14 140.77 329.55 140.55 C 335.18 129.88 340.86 119.24 346.52 108.59 C 348.63 104.60 349.28 99.94 351.59 96.07 C 349.68 110.86 350.49 125.78 350.39 140.64 C 356.52 140.67 362.66 140.57 368.79 140.70 C 369.17 117.76 368.85 94.76 368.95 71.80 C 362.63 71.65 356.30 71.79 349.97 71.73 L 349.35 72.15 C 343.83 83.43 338.30 94.70 332.77 105.97 C 331.06 109.60 330.01 113.57 328.24 117.12 C 327.72 115.45 328.10 113.65 328.15 111.94 C 329.24 98.76 328.42 85.51 328.71 72.30 L 328.20 71.71 C 322.24 72.01 316.00 71.25 310.20 72.09 M 444.06 71.76 C 444.17 77.04 443.75 82.40 444.28 87.64 C 450.28 87.45 456.29 87.63 462.30 87.54 C 462.80 105.09 462.44 122.78 462.47 140.38 C 468.49 141.04 474.70 140.39 480.79 140.69 C 481.46 139.21 480.99 137.50 481.12 135.93 C 481.10 119.88 481.16 103.82 481.09 87.76 C 487.19 87.28 493.42 87.71 499.57 87.55 C 499.34 82.32 500.14 76.75 499.21 71.72 C 480.83 71.78 462.44 71.70 444.06 71.76 M 584.26 111.54 C 583.69 115.32 583.09 119.47 580.38 122.37 C 578.04 124.83 574.46 124.77 571.39 125.29 C 571.53 130.39 571.43 135.49 571.45 140.59 C 578.47 140.55 586.03 140.14 592.04 136.08 C 597.19 132.58 599.65 126.43 600.71 120.51 C 602.64 110.06 602.80 99.40 603.85 88.85 L 604.32 88.34 C 608.14 88.39 611.97 88.40 615.80 88.33 C 616.67 105.68 615.56 123.35 616.36 140.69 C 622.43 140.56 628.50 140.72 634.57 140.60 C 634.61 117.85 634.52 95.09 634.62 72.33 C 633.50 71.06 631.45 72.02 629.98 71.74 C 615.95 71.88 601.83 71.45 587.86 71.96 C 586.22 85.01 585.87 98.40 584.26 111.54 Z" />
<path fill="#fbdc44" opacity="1.00" d=" M 532.33 87.48 C 536.77 86.21 543.69 87.74 544.55 93.03 C 544.61 101.68 544.69 110.35 544.51 119.00 C 542.62 127.36 528.32 127.36 526.47 118.97 C 526.31 110.34 526.37 101.70 526.44 93.07 C 526.61 89.96 529.66 88.23 532.33 87.48 Z" />
<path fill="#fbdc44" opacity="1.00" d=" M 249.96 238.16 C 302.27 237.29 354.59 236.74 406.89 235.73 C 406.80 241.45 406.88 247.17 406.85 252.89 C 399.37 260.04 391.51 266.82 384.04 274.00 C 374.33 282.51 364.98 291.43 355.39 300.09 C 348.98 306.03 342.54 311.95 336.05 317.79 C 332.81 317.79 329.56 317.73 326.32 317.73 C 318.09 317.58 309.86 317.55 301.64 317.51 C 282.69 317.33 263.74 317.26 244.81 317.07 L 243.44 317.05 C 233.01 316.80 222.56 316.86 212.12 316.72 C 203.80 316.57 195.47 316.54 187.15 316.51 C 180.05 316.46 172.95 316.42 165.85 316.33 C 164.31 312.14 162.97 307.87 161.36 303.70 C 190.93 281.91 220.36 259.91 249.96 238.16 Z" />
</g>
<g id="#4c4c4dff">
<path fill="#4c4c4d" opacity="1.00" d=" M 140.83 46.56 C 148.83 46.28 156.86 46.66 164.87 46.37 C 164.80 46.66 164.66 47.23 164.60 47.52 C 151.55 62.34 138.74 77.38 125.65 92.16 L 125.81 92.96 C 138.74 108.53 151.60 124.16 164.47 139.78 C 164.58 140.02 164.80 140.51 164.91 140.75 C 156.75 140.45 148.57 140.81 140.42 140.56 C 130.91 128.74 121.41 116.90 111.90 105.09 L 111.15 104.99 C 110.01 106.32 108.20 107.27 107.64 108.98 C 107.66 119.52 107.66 130.06 107.64 140.61 C 101.16 140.70 94.68 140.59 88.20 140.67 C 87.97 109.34 88.23 78.01 88.07 46.68 C 94.41 46.14 100.89 46.71 107.28 46.40 L 107.66 47.14 C 107.62 59.73 107.68 72.32 107.63 84.91 C 109.32 84.69 109.63 82.83 110.77 81.89 C 120.81 70.14 130.77 58.30 140.83 46.56 Z" />
<path fill="#4c4c4d" opacity="1.00" d=" M 385.93 83.03 C 395.45 67.30 421.37 66.00 432.62 80.47 C 434.50 82.78 435.52 85.60 436.54 88.36 L 436.10 89.15 C 431.02 90.75 425.95 92.46 420.81 93.83 C 418.59 86.66 408.10 84.80 403.07 90.04 C 401.81 91.35 401.31 93.22 401.37 95.00 C 401.38 102.69 401.33 110.37 401.40 118.06 C 401.37 121.03 403.62 123.48 406.29 124.50 C 411.90 126.92 419.31 123.93 421.18 117.99 C 426.52 119.50 431.73 121.46 437.04 123.10 C 434.97 132.25 426.27 139.39 417.12 141.23 C 405.69 143.68 391.88 139.80 385.79 129.23 C 381.56 122.20 383.25 113.74 382.91 105.98 C 383.20 98.31 381.62 89.91 385.93 83.03 Z" />
<path fill="#4c4c4d" opacity="1.00" d=" M 527.30 71.47 C 536.25 69.18 546.33 70.65 553.83 76.21 C 559.41 80.30 563.01 87.03 563.04 93.98 C 563.07 102.31 563.10 110.65 563.02 118.98 C 562.90 126.38 558.71 133.48 552.41 137.33 C 542.94 143.17 530.44 143.41 520.55 138.46 C 513.26 134.86 508.08 127.21 507.96 119.01 C 507.96 109.98 507.74 100.94 508.08 91.92 C 508.96 81.71 517.61 73.65 527.30 71.47 M 532.33 87.48 C 529.66 88.23 526.61 89.96 526.44 93.07 C 526.37 101.70 526.31 110.34 526.47 118.97 C 528.32 127.36 542.62 127.36 544.51 119.00 C 544.69 110.35 544.61 101.68 544.55 93.03 C 543.69 87.74 536.77 86.21 532.33 87.48 Z" />
<path fill="#4c4c4d" opacity="1.00" d=" M 171.23 72.16 L 171.84 71.70 C 177.57 71.82 183.30 71.66 189.03 71.78 C 189.10 87.54 189.03 103.30 189.07 119.06 C 188.94 121.86 190.47 124.71 193.10 125.82 C 197.59 127.80 203.00 127.41 207.27 125.04 C 207.57 107.51 207.33 89.93 207.39 72.39 L 207.71 71.72 C 213.80 71.79 219.90 71.68 225.99 71.77 C 226.01 94.84 226.01 117.90 225.99 140.96 C 225.99 148.54 223.14 156.35 217.27 161.34 C 211.97 165.89 204.82 167.65 197.97 167.76 C 189.17 167.83 180.06 165.16 173.64 158.93 L 173.67 158.13 C 176.63 154.61 179.09 150.62 182.20 147.26 C 187.92 151.86 196.51 153.80 203.29 150.28 C 207.07 148.41 208.57 143.75 208.06 139.81 C 198.62 143.11 187.31 142.91 179.03 136.81 C 173.70 133.03 171.27 126.35 171.27 119.99 C 171.20 104.05 171.28 88.10 171.23 72.16 Z" />
<path fill="#4c4c4d" opacity="1.00" d=" M 240.80 71.83 C 259.31 71.65 277.85 71.74 296.37 71.78 C 296.54 94.61 296.31 117.46 296.48 140.29 C 290.58 141.14 284.31 140.36 278.27 140.67 L 277.83 140.12 C 277.75 122.86 278.01 105.57 277.70 88.32 C 271.55 88.43 265.41 88.35 259.27 88.37 C 259.14 105.60 259.27 122.84 259.20 140.08 L 258.78 140.67 C 252.95 140.63 247.12 140.62 241.29 140.67 L 240.75 140.14 C 240.78 117.37 240.68 94.60 240.80 71.83 Z" />
<path fill="#4c4c4d" opacity="1.00" d=" M 310.20 72.09 C 316.00 71.25 322.24 72.01 328.20 71.71 L 328.71 72.30 C 328.42 85.51 329.24 98.76 328.15 111.94 C 328.10 113.65 327.72 115.45 328.24 117.12 C 330.01 113.57 331.06 109.60 332.77 105.97 C 338.30 94.70 343.83 83.43 349.35 72.15 L 349.97 71.73 C 356.30 71.79 362.63 71.65 368.95 71.80 C 368.85 94.76 369.17 117.76 368.79 140.70 C 362.66 140.57 356.52 140.67 350.39 140.64 C 350.49 125.78 349.68 110.86 351.59 96.07 C 349.28 99.94 348.63 104.60 346.52 108.59 C 340.86 119.24 335.18 129.88 329.55 140.55 C 323.14 140.77 316.70 140.55 310.28 140.66 C 310.11 117.81 310.27 94.95 310.20 72.09 Z" />
<path fill="#4c4c4d" opacity="1.00" d=" M 444.06 71.76 C 462.44 71.70 480.83 71.78 499.21 71.72 C 500.14 76.75 499.34 82.32 499.57 87.55 C 493.42 87.71 487.19 87.28 481.09 87.76 C 481.16 103.82 481.10 119.88 481.12 135.93 C 480.99 137.50 481.46 139.21 480.79 140.69 C 474.70 140.39 468.49 141.04 462.47 140.38 C 462.44 122.78 462.80 105.09 462.30 87.54 C 456.29 87.63 450.28 87.45 444.28 87.64 C 443.75 82.40 444.17 77.04 444.06 71.76 Z" />
<path fill="#4c4c4d" opacity="1.00" d=" M 584.26 111.54 C 585.87 98.40 586.22 85.01 587.86 71.96 C 601.83 71.45 615.95 71.88 629.98 71.74 C 631.45 72.02 633.50 71.06 634.62 72.33 C 634.52 95.09 634.61 117.85 634.57 140.60 C 628.50 140.72 622.43 140.56 616.36 140.69 C 615.56 123.35 616.67 105.68 615.80 88.33 C 611.97 88.40 608.14 88.39 604.32 88.34 L 603.85 88.85 C 602.80 99.40 602.64 110.06 600.71 120.51 C 599.65 126.43 597.19 132.58 592.04 136.08 C 586.03 140.14 578.47 140.55 571.45 140.59 C 571.43 135.49 571.53 130.39 571.39 125.29 C 574.46 124.77 578.04 124.83 580.38 122.37 C 583.09 119.47 583.69 115.32 584.26 111.54 Z" />
<path fill="#4c4c4d" opacity="1.00" d=" M 355.39 300.09 C 364.98 291.43 374.33 282.51 384.04 274.00 C 379.05 286.80 375.50 300.23 373.93 313.88 C 384.68 316.98 395.42 320.09 406.17 323.19 C 405.22 331.19 404.43 339.25 403.17 347.20 C 401.46 347.84 399.75 348.48 398.01 349.01 C 394.90 347.09 392.05 344.76 389.05 342.69 C 389.21 338.54 392.77 334.49 393.07 330.34 C 380.49 329.14 367.89 328.03 355.33 326.72 C 354.99 317.85 355.10 308.96 355.39 300.09 Z" />
<path fill="#4c4c4d" opacity="1.00" d=" M 187.15 316.51 C 195.47 316.54 203.80 316.57 212.12 316.72 C 204.33 338.62 200.60 361.90 200.41 385.12 C 204.49 387.93 209.33 389.87 213.75 392.26 C 214.50 394.73 214.13 397.43 214.39 400.00 L 188.98 400.00 C 186.16 372.30 184.21 344.27 187.15 316.51 Z" />
<path fill="#4c4c4d" opacity="1.00" d=" M 243.44 317.05 L 244.81 317.07 C 249.77 317.26 254.76 316.83 259.62 318.07 L 258.63 319.28 C 258.37 326.10 257.34 332.99 257.91 339.79 C 262.36 342.14 266.93 344.30 271.31 346.79 C 271.48 349.15 271.58 351.51 271.70 353.88 L 271.13 354.25 C 262.84 354.15 254.55 354.35 246.27 354.15 C 244.90 341.82 243.93 329.44 243.44 317.05 Z" />
<path fill="#4c4c4d" opacity="1.00" d=" M 301.64 317.51 C 309.86 317.55 318.09 317.58 326.32 317.73 C 318.91 339.33 315.13 362.18 315.04 385.01 L 315.32 385.65 C 319.76 387.87 324.18 390.14 328.58 392.45 C 328.83 394.95 328.85 397.48 329.02 400.00 L 303.57 400.00 C 300.79 372.64 298.87 344.95 301.64 317.51 Z" />
</g>
</svg>