<?xml version="1.0" encoding="UTF-8"?>
<!DOCTYPE svg PUBLIC "-//W3C//DTD SVG 1.1//EN" "http://www.w3.org/Graphics/SVG/1.1/DTD/svg11.dtd">
<!-- Creator: CorelDRAW X7 -->
<svg xmlns="http://www.w3.org/2000/svg" xml:space="preserve" width="276px" height="249px" version="1.1" style="shape-rendering:geometricPrecision; text-rendering:geometricPrecision; image-rendering:optimizeQuality; fill-rule:evenodd; clip-rule:evenodd"
viewBox="0 0 276 249"
 xmlns:xlink="http://www.w3.org/1999/xlink">
 <defs>
  <style type="text/css">
   <![CDATA[
    .fil0 {fill:black;fill-rule:nonzero}
   ]]>
  </style>
 </defs>
 <g id="Слой_x0020_1">
  <metadata id="CorelCorpID_0Corel-Layer"/>
  <g id="_2403501663728">
   <path class="fil0" d="M235 101l21 0 -21 -14 0 14zm32 12l-106 57 106 68 0 -125zm-15 127l-114 -74 -114 74 228 0zm-243 -2l106 -68 -106 -56 0 124zm13 -137l17 0 0 -10 -17 10zm17 -22l0 -66c0,-4 1,-7 3,-9l0 0c3,-3 6,-4 9,-4l171 0c4,0 7,1 9,4l1 0c2,2 3,5 3,9l0 63 36 24c0,0 1,0 1,0 2,1 4,2 4,6l0 135c0,2 -1,4 -2,6l0 0c-2,1 -4,2 -6,2l-260 0c-2,0 -4,-1 -6,-2l0 0 0 0c-1,-2 -2,-4 -2,-6l0 -135c0,-4 3,-5 5,-6 1,0 1,-1 1,-1l33 -20zm113 85c0,0 0,0 1,0l73 -40 0 -111c0,-1 -1,-2 -1,-3l0 0c-1,0 -2,-1 -3,-1l-171 0c0,0 -1,1 -2,1l0 0c0,1 -1,2 -1,3l0 111 76 40 11 -7c2,-1 4,-1 5,0l12 7zm100 -54l-17 0 0 9 17 -9zm-213 9l0 -9 -16 0 16 9z"/>
   <path class="fil0" d="M158 100c-2,0 -4,0 -5,-1 -2,0 -3,-1 -4,-2 -1,1 -3,1 -5,2 -2,1 -5,1 -7,1 -3,0 -6,-1 -9,-2 -2,-1 -5,-2 -7,-4 -2,-2 -3,-5 -4,-8 -1,-3 -2,-6 -2,-10 0,-3 1,-6 2,-9 1,-3 2,-6 4,-8 2,-2 5,-4 8,-5 2,-1 6,-2 9,-2 4,0 7,0 10,1 3,0 5,1 7,2l0 31c0,2 0,4 1,5 1,1 2,1 3,1 2,0 3,-1 5,-2 1,-1 2,-3 3,-5 1,-2 1,-4 2,-6 0,-3 0,-5 0,-8 0,-4 0,-8 -2,-12 -1,-4 -3,-7 -6,-10 -3,-3 -7,-5 -11,-7 -4,-2 -8,-3 -13,-3 -5,0 -10,1 -14,3 -4,2 -8,4 -11,7 -3,3 -5,7 -7,12 -1,4 -2,9 -2,15 0,6 1,11 2,16 2,5 5,8 8,11 3,3 7,6 11,7 5,2 9,3 15,3 4,0 7,-1 10,-1 2,-1 4,-1 5,-1l1 7c-1,1 -4,1 -7,2 -3,0 -6,0 -9,0 -7,0 -12,0 -18,-2 -5,-2 -10,-5 -14,-8 -4,-4 -7,-8 -10,-14 -2,-6 -3,-12 -3,-20 0,-7 1,-14 3,-19 3,-6 6,-11 10,-14 4,-4 8,-7 13,-9 6,-1 11,-2 17,-2 6,0 11,1 16,2 5,2 9,5 13,8 4,4 7,8 9,13 2,5 3,10 3,17 0,4 0,8 -1,12 -1,3 -3,6 -5,9 -1,2 -3,4 -6,5 -2,2 -5,2 -8,2zm-20 -8c1,0 3,0 4,-1 1,0 3,0 4,-1 0,-1 0,-2 0,-3 -1,0 -1,-1 -1,-2l0 -24c0,-1 -1,-1 -2,-1 -1,0 -2,0 -4,0 -5,0 -8,2 -11,5 -2,3 -3,6 -3,11 0,5 1,9 3,12 2,2 6,4 10,4z"/>
  </g>
 </g>
</svg>
