<?xml version="1.0" encoding="UTF-8"?>
<!DOCTYPE svg PUBLIC "-//W3C//DTD SVG 1.1//EN" "http://www.w3.org/Graphics/SVG/1.1/DTD/svg11.dtd">
<!-- Creator: CorelDRAW X7 -->
<svg xmlns="http://www.w3.org/2000/svg" xml:space="preserve" width="293px" height="295px" version="1.1" style="shape-rendering:geometricPrecision; text-rendering:geometricPrecision; image-rendering:optimizeQuality; fill-rule:evenodd; clip-rule:evenodd"
viewBox="0 0 293 295"
 xmlns:xlink="http://www.w3.org/1999/xlink">
 <defs>
  <style type="text/css">
   <![CDATA[
    .fil0 {fill:black;fill-rule:nonzero}
   ]]>
  </style>
 </defs>
 <g id="Слой_x0020_1">
  <metadata id="CorelCorpID_0Corel-Layer"/>
  <path class="fil0" d="M97 51c13,0 25,5 34,14 9,9 14,21 14,34 0,14 -5,26 -14,35 -9,8 -21,14 -34,14 -13,0 -26,-6 -34,-14 -9,-9 -15,-21 -15,-35 0,-13 6,-25 15,-34 8,-9 21,-14 34,-14zm142 93c4,0 7,2 9,4l0 0c3,2 4,6 4,9 0,4 -1,7 -4,9l0 0c-2,3 -5,4 -9,4 -3,0 -7,-1 -9,-4l0 0c-3,-2 -4,-5 -4,-9 0,-3 1,-7 4,-9l0 0c2,-2 6,-4 9,-4zm4 9c-1,-1 -2,-2 -4,-2 -2,0 -3,1 -4,2 -1,1 -2,2 -2,4 0,2 1,3 2,4 1,2 2,2 4,2 2,0 3,0 4,-2 2,-1 2,-2 2,-4 0,-2 0,-3 -2,-4zm-17 -132c-2,0 -3,-1 -3,-3 0,-2 1,-4 3,-4l26 0c2,0 3,2 3,4 0,2 -1,3 -3,3l-26 0zm-31 111l89 0 0 -95 -89 0 0 95zm89 10l-89 0 0 27c0,1 0,2 1,3 1,1 2,1 3,1l80 0c1,0 2,0 3,-1l0 0c1,-1 2,-2 2,-3l0 -27zm-89 -115l89 0 0 -13c0,-1 -1,-2 -2,-3 -1,-1 -2,-1 -3,-1l-80 0c-1,0 -2,0 -3,1 -1,1 -1,2 -1,3l0 13zm4 -27l80 0c4,0 7,2 10,4 2,3 4,6 4,10l0 155c0,4 -2,7 -4,10l0 0 0 0c-3,2 -6,4 -10,4l-80 0c-3,0 -7,-2 -10,-4l0 0c-2,-3 -4,-6 -4,-10l0 -155c0,-4 2,-7 4,-10l0 0c3,-2 7,-4 10,-4zm-64 158c0,0 1,0 2,0 16,3 30,11 41,22 10,12 17,28 17,45l0 65 0 5 -5 0 -185 0 -5 0 0 -5 0 -65c0,-17 7,-33 17,-45 11,-12 26,-20 43,-22l4 0 1 3c5,12 10,26 14,41l2 4 5 -27 -7 -15c-1,-3 0,-5 3,-6 1,-1 1,-1 2,-1l7 0c0,0 0,0 0,0l7 0 6 0c0,0 0,0 0,0l7 0c1,0 2,0 2,1 3,1 4,3 3,6l-7 15 5 26 16 -44 1 -3 4 0 0 0zm21 17l5 4c2,2 2,4 0,6l-56 71c-1,1 -2,2 -3,2 -2,1 -3,1 -5,1 -2,0 -3,0 -5,-2 0,0 0,0 0,0 -1,0 -1,-1 -1,-1 -1,-1 -2,-2 -3,-4l-54 -67c-1,-2 -1,-4 1,-6l6 -6c-6,4 -12,8 -17,14 -9,10 -15,24 -15,38l0 60 177 0 0 -60c0,-14 -6,-28 -15,-38 -4,-5 -9,-9 -15,-12zm-39 51l34 -43 -14 -13 -20 56zm-58 -55l-14 12 32 40c-3,-6 -5,-12 -7,-19 -3,-11 -7,-23 -11,-33zm37 76l2 2c1,-1 2,-4 4,-7l6 -19c0,0 0,-1 0,-1l-8 -42c0,-1 0,-2 0,-3l4 -10 -6 0 -7 0 4 10c0,1 0,2 0,3l-8 42c0,0 0,1 0,1 2,7 4,13 6,19 1,2 2,4 3,5zm29 -175c-8,-7 -17,-12 -28,-12 -11,0 -21,5 -28,12 -7,7 -11,16 -11,27 0,11 4,21 11,28 7,7 17,11 28,11 11,0 20,-4 28,-11 7,-7 11,-17 11,-28 0,-11 -4,-20 -11,-27z"/>
 </g>
</svg>
