<?xml version="1.0" encoding="UTF-8"?>
<!DOCTYPE svg PUBLIC "-//W3C//DTD SVG 1.1//EN" "http://www.w3.org/Graphics/SVG/1.1/DTD/svg11.dtd">
<!-- Creator: CorelDRAW X7 -->
<svg xmlns="http://www.w3.org/2000/svg" xml:space="preserve" width="331px" height="282px" version="1.1" style="shape-rendering:geometricPrecision; text-rendering:geometricPrecision; image-rendering:optimizeQuality; fill-rule:evenodd; clip-rule:evenodd"
viewBox="0 0 331 282"
 xmlns:xlink="http://www.w3.org/1999/xlink">
 <defs>
  <style type="text/css">
   <![CDATA[
    .fil0 {fill:black;fill-rule:nonzero}
   ]]>
  </style>
 </defs>
 <g id="Слой_x0020_1">
  <metadata id="CorelCorpID_0Corel-Layer"/>
  <path class="fil0" d="M208 188l-32 -32c-4,-4 -7,-7 -9,-8 -1,0 -2,0 -4,2 -3,3 -5,5 -8,9l-2 1 -1 1c-16,17 -22,22 -62,-18 -18,-18 -27,-28 -29,-36 -4,-10 1,-16 9,-23 0,0 0,0 0,-1 2,-1 3,-2 4,-4l0 0c3,-2 5,-4 6,-5 0,-1 0,-1 0,-1 4,-3 6,-5 5,-6 0,-1 -2,-4 -6,-8l-34 -34 0 0c0,0 -1,0 -2,0 0,0 -1,0 -2,0l1 0 -23 22c-9,10 -9,26 -2,46 8,22 24,48 45,70 1,1 3,3 5,5 21,21 45,38 68,47 21,8 39,9 50,-1 0,0 0,0 1,0l22 -22 0 -1c0,0 1,-1 1,-1 0,-1 -1,-2 -1,-2zm25 -80c1,3 -2,6 -5,7 -3,0 -6,-2 -7,-5 -1,-10 -5,-22 -11,-34 -6,-11 -14,-22 -23,-31 -9,-9 -19,-17 -30,-23 -12,-5 -24,-9 -33,-10 -3,0 -6,-3 -6,-7 1,-3 4,-5 7,-5 11,1 24,5 37,11 12,7 24,15 34,25 10,10 18,22 25,34 7,13 11,27 12,38zm-44 4c0,3 -3,6 -6,6 -4,0 -7,-3 -6,-7 0,-1 0,-3 0,-5 -2,-11 -9,-23 -18,-32l0 0c-9,-10 -21,-17 -32,-18 -2,0 -3,0 -5,0 -3,1 -6,-2 -7,-5 0,-3 3,-6 6,-7 2,0 4,0 6,0 15,1 29,9 41,21l0 0 0 0c11,11 19,26 21,40 0,2 0,5 0,7zm126 91c-1,-3 1,-7 4,-8 3,-1 7,1 8,4 1,3 2,7 2,10 1,3 1,7 1,10 0,17 -7,33 -19,45 -11,11 -27,18 -44,18 -18,0 -34,-7 -45,-18 -12,-12 -19,-28 -19,-45 0,-2 0,-4 1,-6l-10 9 0 1c-15,14 -39,14 -64,3 -24,-9 -50,-27 -72,-50 -1,-1 -3,-3 -5,-5 -22,-23 -39,-50 -48,-74 -8,-24 -7,-45 6,-58l22 -22 0 0 0 0c3,-3 7,-5 10,-5 4,0 8,2 11,4 0,0 0,1 0,1l34 33c6,7 10,11 10,16 0,6 -3,10 -9,16 -2,2 -4,4 -6,6l0 0c-1,2 -3,3 -4,4 0,0 0,0 0,1 -5,4 -8,7 -7,10 2,6 10,14 26,31 32,32 35,28 45,18l1 -1 0 0 2 -1c3,-3 5,-6 8,-8 0,0 0,-1 0,-1 6,-6 11,-7 17,-5 4,2 8,6 14,11l31 32c1,0 1,0 1,1 2,-2 3,-4 5,-6 11,-11 27,-18 45,-18 5,0 10,0 15,1l0 0c5,2 10,3 14,6 3,1 4,5 3,8 -2,3 -6,4 -9,3 -3,-2 -7,-4 -11,-5 -4,-1 -8,-1 -12,-1 -14,0 -27,6 -36,15 -10,9 -15,22 -15,36 0,14 5,27 15,36 9,9 22,15 36,15 14,0 26,-6 36,-15 9,-9 15,-22 15,-36 0,-3 -1,-6 -1,-8 0,-3 -1,-5 -2,-8zm-78 11c-2,-2 -2,-6 1,-8 3,-2 7,-2 9,1l19 24 54 -76c2,-3 6,-4 9,-2 2,2 3,6 1,9l-59 83c0,1 -1,1 -1,2 -3,2 -7,1 -9,-1l-24 -32z"/>
 </g>
</svg>
