<svg width="21px" height="21px" viewBox="0 0 50 50" version="1.1" xmlns="http://www.w3.org/2000/svg">
<g id="#000000fd">
<path fill="#000000" opacity="1.00" d=" M 26.63 0.00 L 26.98 0.00 C 38.28 1.56 47.88 10.63 50.00 21.84 L 50.00 23.44 C 49.19 23.55 48.37 23.66 47.56 23.78 C 46.27 17.38 43.09 11.15 37.63 7.35 C 34.39 4.69 30.16 4.01 26.44 2.32 C 26.49 1.74 26.58 0.58 26.63 0.00 Z" />
<path fill="#000000" opacity="1.00" d=" M 7.10 4.02 C 8.95 2.51 11.74 3.07 13.30 4.74 C 15.79 7.17 18.67 9.42 20.40 12.48 C 21.84 16.26 17.96 18.84 15.69 21.16 C 18.86 26.67 23.54 31.20 28.97 34.47 C 31.10 32.58 32.86 29.48 36.04 29.47 C 38.08 29.33 39.45 30.98 40.80 32.22 C 43.34 34.83 46.39 37.23 47.47 40.87 C 45.31 44.29 42.58 47.50 39.06 49.56 C 32.48 51.01 26.22 47.51 20.80 44.22 C 10.54 37.35 1.93 26.75 0.00 14.29 L 0.00 14.05 C 0.40 9.66 3.97 6.68 7.10 4.02 M 9.02 6.14 C 6.15 8.67 2.03 11.55 3.25 16.00 C 5.27 25.31 11.49 33.29 18.74 39.24 C 24.10 43.21 30.26 47.15 37.12 47.22 C 40.06 45.80 43.05 43.07 44.21 40.10 C 41.98 37.25 39.33 34.73 36.61 32.35 C 33.31 32.34 32.05 36.66 29.00 37.68 C 21.90 33.96 15.90 28.09 12.37 20.87 C 13.78 18.11 18.10 16.65 17.69 13.26 C 15.52 10.79 13.21 8.41 10.70 6.28 C 10.28 6.24 9.44 6.17 9.02 6.14 Z" />
<path fill="#000000" opacity="1.00" d=" M 25.53 9.90 C 29.50 8.51 33.42 11.14 36.25 13.71 C 38.76 16.28 41.22 19.95 40.62 23.61 C 39.57 25.82 37.82 23.30 37.79 21.92 C 36.66 16.46 31.59 12.91 26.46 11.69 C 26.22 11.25 25.76 10.35 25.53 9.90 Z" />
</g>
</svg>