<?xml version="1.0" encoding="UTF-8"?>
<!DOCTYPE svg PUBLIC "-//W3C//DTD SVG 1.1//EN" "http://www.w3.org/Graphics/SVG/1.1/DTD/svg11.dtd">
<!-- Creator: CorelDRAW X7 -->
<svg xmlns="http://www.w3.org/2000/svg" xml:space="preserve" width="298px" height="206px" version="1.1" style="shape-rendering:geometricPrecision; text-rendering:geometricPrecision; image-rendering:optimizeQuality; fill-rule:evenodd; clip-rule:evenodd"
viewBox="0 0 298 206"
 xmlns:xlink="http://www.w3.org/1999/xlink">
 <defs>
  <style type="text/css">
   <![CDATA[
    .fil0 {fill:black;fill-rule:nonzero}
   ]]>
  </style>
 </defs>
 <g id="Слой_x0020_1">
  <metadata id="CorelCorpID_0Corel-Layer"/>
  <g id="_2101990703664">
   <path class="fil0" d="M28 184c-2,0 -5,-3 -5,-5 0,-3 3,-5 5,-5l241 0c2,0 5,2 5,5 0,2 -3,5 -5,5l-241 0z"/>
   <path class="fil0" d="M28 137c-2,0 -5,-2 -5,-5 0,-2 3,-4 5,-4l240 0c3,0 5,2 5,4 0,3 -2,5 -5,5l-240 0z"/>
   <path class="fil0" d="M50 111c-3,0 -5,-2 -5,-5 0,-3 2,-5 5,-5l200 0c3,0 5,2 5,5 0,3 -2,5 -5,5l-200 0z"/>
   <path class="fil0" d="M46 103c1,-2 4,-2 6,-1 3,2 3,5 1,7l-20 25 0 62 20 -20c2,-1 5,-1 7,0 2,2 2,5 0,7l-22 22c-1,0 -2,1 -4,1l-5 0c-3,0 -5,-2 -5,-5l0 -68c-1,-2 0,-3 1,-4l21 -26z"/>
   <path class="fil0" d="M245 109c-2,-2 -2,-5 0,-7 2,-1 5,-1 7,1l21 26c1,1 1,2 1,4l0 68c0,3 -2,5 -5,5l-6 0c-1,0 -2,-1 -3,-1l-22 -22c-2,-2 -2,-5 0,-7 2,-1 5,-1 7,0l20 20 0 -62 -20 -25z"/>
   <path class="fil0" d="M50 107c0,3 -2,5 -4,5 -3,1 -5,-1 -5,-4l-7 -79c0,-1 0,-1 0,-2 0,-7 3,-14 8,-18 4,-5 11,-8 18,-9 1,0 1,0 2,0l74 0c1,0 2,1 3,1 2,2 4,4 7,6 1,1 2,2 3,2l9 -8c1,0 2,-1 3,-1l0 0 73 0c1,0 1,0 2,0 7,1 14,4 18,9 5,4 8,11 8,18 0,1 0,1 0,2l0 0 -7 81c0,2 -2,4 -5,4 -3,0 -4,-2 -4,-5l7 -81 0 0c0,0 0,0 0,-1 0,-4 -2,-9 -5,-12 -3,-3 -8,-5 -13,-5 0,0 -1,0 -1,0l-71 0 -11 9c-1,1 -4,2 -6,0 -2,-1 -4,-3 -7,-5 -1,-2 -3,-3 -4,-4l-73 0c0,0 -1,0 -1,0 -5,0 -10,2 -13,5 -3,3 -5,8 -5,12 0,0 0,1 0,1l7 79z"/>
   <polygon class="fil0" points="154,12 154,104 144,104 144,12 "/>
   <path class="fil0" d="M27 174c3,0 5,2 5,5 0,2 -2,5 -5,5l-12 0c-4,0 -8,-2 -11,-5 -2,-3 -4,-6 -4,-11l0 -81c0,-6 2,-11 6,-15 4,-4 9,-7 15,-7l19 0c3,0 5,2 5,5 0,3 -2,5 -5,5l-19 0c-3,0 -6,1 -8,3 -2,3 -4,6 -4,9l0 81c0,2 1,3 2,4 1,1 2,2 4,2l12 0z"/>
   <path class="fil0" d="M271 184c-3,0 -5,-3 -5,-5 0,-3 2,-5 5,-5l12 0c2,0 3,-1 4,-2 1,-1 2,-2 2,-4l0 -81c0,-3 -2,-6 -4,-9 -2,-2 -5,-3 -8,-3l-19 0c-3,0 -5,-2 -5,-5 0,-3 2,-5 5,-5l19 0c6,0 11,3 15,7 4,4 6,9 6,15l0 81c0,5 -2,8 -4,11 -3,3 -7,5 -11,5l-12 0z"/>
  </g>
 </g>
</svg>
