<?xml version="1.0" encoding="UTF-8"?>
<!DOCTYPE svg PUBLIC "-//W3C//DTD SVG 1.1//EN" "http://www.w3.org/Graphics/SVG/1.1/DTD/svg11.dtd">
<!-- Creator: CorelDRAW X7 -->
<svg xmlns="http://www.w3.org/2000/svg" xml:space="preserve" width="286px" height="197px" version="1.1" style="shape-rendering:geometricPrecision; text-rendering:geometricPrecision; image-rendering:optimizeQuality; fill-rule:evenodd; clip-rule:evenodd"
viewBox="0 0 286 197"
 xmlns:xlink="http://www.w3.org/1999/xlink">
 <defs>
  <style type="text/css">
   <![CDATA[
    .fil0 {fill:black;fill-rule:nonzero}
   ]]>
  </style>
 </defs>
 <g id="Слой_x0020_1">
  <metadata id="CorelCorpID_0Corel-Layer"/>
  <g id="_2102060109312">
   <path class="fil0" d="M40 103l204 0c2,0 4,2 4,3l38 84c1,2 0,5 -3,6 0,0 -1,0 -2,0l-26 0c-2,0 -4,-1 -4,-2l-27 -56 -184 0c-2,0 -4,-2 -4,-4l0 -26c0,-3 2,-5 4,-5zm201 10l-196 0 0 16 182 0 0 0c1,0 3,1 4,3l27 55 16 0 -33 -74z"/>
   <path class="fil0" d="M50 79c-1,-3 1,-5 3,-6 2,-1 5,0 6,2l13 30c1,2 0,5 -2,6 -3,1 -6,0 -7,-2l-13 -30z"/>
   <path class="fil0" d="M48 108c1,2 0,5 -2,6 -3,1 -6,0 -7,-3l-38 -88c-2,-4 -2,-9 0,-13 2,-4 4,-7 8,-9 1,0 1,0 1,0 4,-1 8,-1 12,0 4,2 7,5 9,9l0 0 19 45c1,2 0,5 -2,6 -2,1 -5,0 -6,-3l-20 -44c0,0 0,0 0,-1 0,-1 -2,-2 -3,-3 -2,-1 -4,-1 -5,0l-1 0c-1,1 -3,2 -3,4 -1,1 -1,3 0,5l38 89z"/>
   <path class="fil0" d="M68 134c1,-3 4,-4 6,-3 3,1 4,4 3,6l-25 57c0,2 -2,3 -4,3l-20 0c-2,0 -5,-2 -5,-5 0,-1 1,-1 1,-2l25 -58c1,-2 3,-3 6,-2 2,1 3,4 2,6l-22 52 10 0 23 -54z"/>
   <path class="fil0" d="M21 54l104 0c15,0 29,6 39,16 11,10 17,24 17,40l-10 0c0,-13 -5,-25 -13,-33 -9,-8 -20,-14 -33,-14l-104 0 0 -9z"/>
   <path class="fil0" d="M29 72l91 0c11,0 21,4 28,11 7,8 12,18 12,29l-10 0c0,-9 -3,-16 -9,-22 -5,-5 -13,-9 -21,-9l-91 0 0 -9z"/>
  </g>
 </g>
</svg>
