<?xml version="1.0" encoding="UTF-8"?>
<!DOCTYPE svg PUBLIC "-//W3C//DTD SVG 1.1//EN" "http://www.w3.org/Graphics/SVG/1.1/DTD/svg11.dtd">
<!-- Creator: CorelDRAW X7 -->
<svg xmlns="http://www.w3.org/2000/svg" xml:space="preserve" width="297px" height="148px" version="1.1" style="shape-rendering:geometricPrecision; text-rendering:geometricPrecision; image-rendering:optimizeQuality; fill-rule:evenodd; clip-rule:evenodd"
viewBox="0 0 297 148"
 xmlns:xlink="http://www.w3.org/1999/xlink">
 <defs>
  <style type="text/css">
   <![CDATA[
    .fil0 {fill:black;fill-rule:nonzero}
   ]]>
  </style>
 </defs>
 <g id="Слой_x0020_1">
  <metadata id="CorelCorpID_0Corel-Layer"/>
  <g id="_2101990710320">
   <path class="fil0" d="M0 5c0,-3 2,-5 5,-5 2,0 5,2 5,5l0 138c0,3 -3,5 -5,5 -3,0 -5,-2 -5,-5l0 -138z"/>
   <path class="fil0" d="M59 93c0,-3 2,-5 4,-5 3,0 5,2 5,5l0 50c0,3 -2,5 -5,5 -2,0 -4,-2 -4,-5l0 -50z"/>
   <path class="fil0" d="M8 73l51 0c4,0 7,2 9,4 3,2 4,6 4,9 0,4 -1,7 -4,9 -2,3 -5,4 -9,4l-51 0 0 -9 51 0c1,0 2,-1 3,-1 0,-1 1,-2 1,-3 0,-1 -1,-2 -1,-2 -1,-1 -2,-1 -3,-1l-51 0 0 -10z"/>
   <path class="fil0" d="M287 5c0,-3 3,-5 5,-5 3,0 5,2 5,5l0 138c0,3 -2,5 -5,5 -2,0 -5,-2 -5,-5l0 -138z"/>
   <path class="fil0" d="M229 93c0,-3 2,-5 5,-5 2,0 4,2 4,5l0 50c0,3 -2,5 -4,5 -3,0 -5,-2 -5,-5l0 -50z"/>
   <path class="fil0" d="M289 83l-51 0c-1,0 -2,0 -3,1 0,0 -1,1 -1,2 0,1 1,2 1,3 1,0 2,1 3,1l51 0 0 9 -51 0c-4,0 -7,-1 -9,-4 -3,-2 -4,-5 -4,-9 0,-3 1,-7 4,-9 2,-2 5,-4 9,-4l51 0 0 10z"/>
   <path class="fil0" d="M45 19l206 0c2,0 4,2 4,4l0 18c0,2 -2,4 -4,4l-206 0c-3,0 -5,-2 -5,-4l0 -18c0,-2 2,-4 5,-4zm201 9l-196 0 0 8 196 0 0 -8z"/>
   <path class="fil0" d="M111 72c-2,0 -5,-3 -5,-5 0,-3 3,-5 5,-5l70 0c3,0 5,2 5,5 0,2 -2,5 -5,5l-70 0z"/>
   <path class="fil0" d="M105 41c0,-3 2,-5 4,-5 3,0 5,2 5,5l0 102c0,3 -2,5 -5,5l-15 0c-3,0 -5,-2 -5,-5l0 -102c0,-3 2,-5 5,-5 3,0 5,2 5,5l0 98 6 0 0 -98z"/>
   <path class="fil0" d="M196 41c0,-3 2,-5 5,-5 2,0 4,2 4,5l0 102c0,3 -2,5 -4,5l-16 0c-2,0 -5,-2 -5,-5l0 -102c0,-3 3,-5 5,-5 3,0 5,2 5,5l0 98 6 0 0 -98z"/>
  </g>
 </g>
</svg>
