<svg width="18px" height="22px" viewBox="0 0 40 47" version="1.1" xmlns="http://www.w3.org/2000/svg">
<g id="#000000d7">
<path fill="#000000" opacity="0.84" d=" M 14.48 1.52 C 19.56 -1.65 27.47 0.40 29.40 6.36 C 30.95 11.76 30.60 18.38 26.73 22.75 C 22.34 27.42 13.50 25.82 11.26 19.72 C 8.92 13.88 8.63 5.40 14.48 1.52 M 18.19 3.07 C 15.31 3.54 13.17 6.13 12.83 8.96 C 12.33 12.72 12.47 16.95 14.73 20.16 C 17.31 23.73 23.55 23.42 25.70 19.54 C 27.63 16.09 27.75 11.83 26.95 8.03 C 26.17 4.19 21.80 2.13 18.19 3.07 Z" />
<path fill="#000000" opacity="0.84" d=" M 7.22 28.13 C 9.55 27.32 11.56 25.80 13.90 25.02 C 16.24 26.54 13.58 28.44 12.01 29.06 C 9.39 30.90 5.50 30.78 3.53 33.42 C 2.88 35.86 1.53 40.19 4.88 41.14 C 15.09 45.44 27.32 45.27 37.19 40.11 C 37.01 37.54 37.72 34.31 35.62 32.35 C 32.26 30.69 28.42 29.90 25.50 27.42 C 24.94 26.47 25.15 25.68 26.14 25.03 C 29.41 26.38 32.43 28.27 35.84 29.28 C 40.72 31.22 40.43 37.81 39.32 42.03 C 31.91 46.71 22.66 47.51 14.12 46.58 C 9.44 45.85 4.56 44.74 0.66 41.92 C -0.25 38.78 -0.21 35.22 0.98 32.16 C 2.10 29.65 4.89 29.01 7.22 28.13 Z" />
</g>
</svg>