<?xml version="1.0" encoding="UTF-8"?>
<!DOCTYPE svg PUBLIC "-//W3C//DTD SVG 1.1//EN" "http://www.w3.org/Graphics/SVG/1.1/DTD/svg11.dtd">
<!-- Creator: CorelDRAW X7 -->
<svg xmlns="http://www.w3.org/2000/svg" xml:space="preserve" width="286px" height="270px" version="1.1" style="shape-rendering:geometricPrecision; text-rendering:geometricPrecision; image-rendering:optimizeQuality; fill-rule:evenodd; clip-rule:evenodd"
viewBox="0 0 286 270"
 xmlns:xlink="http://www.w3.org/1999/xlink">
 <defs>
  <style type="text/css">
   <![CDATA[
    .fil0 {fill:black;fill-rule:nonzero}
   ]]>
  </style>
 </defs>
 <g id="Слой_x0020_1">
  <metadata id="CorelCorpID_0Corel-Layer"/>
  <path class="fil0" d="M14 201l45 0 0 -191 -45 0 0 191zm262 -123c0,-2 3,-5 5,-5 3,0 5,3 5,5l0 3c0,6 -3,11 -6,15 -1,0 -1,0 -1,0 -4,4 -9,6 -15,6 -6,0 -11,-2 -15,-6l0 0c-4,-4 -6,-9 -6,-15l0 -34 -45 0 0 34c0,3 2,6 4,8l0 0 0 0c2,2 5,4 9,4 3,0 6,-1 8,-4 0,0 0,0 0,0 2,-2 4,-5 4,-8l0 -3c0,-2 2,-5 4,-5 3,0 5,3 5,5l0 3c0,6 -2,11 -6,15 0,0 0,0 -1,0 -3,4 -9,6 -14,6 -6,0 -12,-2 -16,-6l0 0c-4,-4 -6,-9 -6,-15l0 -34 -45 0 0 34c0,3 2,6 4,8l0 0 0 0c2,2 5,4 9,4 3,0 6,-1 8,-4 0,0 0,0 0,0 2,-2 4,-5 4,-8l0 -3c0,-2 2,-5 4,-5 3,0 5,3 5,5l0 3c0,6 -2,11 -6,15 0,0 0,0 0,0 -4,4 -10,6 -15,6 -6,0 -12,-2 -16,-6l0 0c-4,-4 -6,-9 -6,-15l0 -34 -11 0 0 154 151 0c3,0 5,2 5,5l0 59c0,3 -2,5 -5,5l-271 0c-2,0 -5,-2 -5,-5l0 -59c0,-3 3,-5 5,-5l0 -196c0,-3 2,-5 5,-5l110 0c3,0 5,2 5,5l0 33 15 0c0,0 0,0 1,0 0,0 0,0 1,0l52 0c0,0 0,0 1,0 0,0 0,0 0,0l53 0c0,0 0,0 0,0 1,0 1,0 1,0l24 0c3,0 5,2 5,4 0,3 -2,5 -5,5l-20 0 0 34c0,3 1,6 4,8l0 0 0 0c2,2 5,4 8,4 4,0 6,-1 9,-4 0,0 0,0 0,0 2,-2 3,-5 3,-8l0 -3zm-149 154c-3,0 -5,-2 -5,-5 0,-2 2,-4 5,-4l25 0c3,0 5,2 5,4 0,3 -2,5 -5,5l-25 0zm-30 -137c0,-3 2,-5 5,-5 2,0 4,2 4,5l0 21c0,2 -2,4 -4,4 -3,0 -5,-2 -5,-4l0 -21zm-54 0c0,-3 2,-5 4,-5 3,0 5,2 5,5l0 21c0,2 -2,4 -5,4 -2,0 -4,-2 -4,-4l0 -21zm26 106l46 0 0 -191 -46 0 0 191zm201 10l-151 0 -110 0 0 49 261 0 0 -49z"/>
 </g>
</svg>
